<?xml version="1.2" encoding="UTF-8"?>
<!DOCTYPE svg PUBLIC "-//W3C//DTD SVG 1.1//EN" "http://www.w3.org/Graphics/SVG/1.1/DTD/svg11.dtd">
<!-- Creator: CorelDRAW 2020 (64-Bit) -->
<svg xmlns="http://www.w3.org/2000/svg" xml:space="preserve" width="520px" height="508px" version="1.1" style="shape-rendering:geometricPrecision; text-rendering:geometricPrecision; image-rendering:optimizeQuality; fill-rule:evenodd; clip-rule:evenodd"
viewBox="0 0 360 360"
 xmlns:xlink="http://www.w3.org/1999/xlink"
 xmlns:xodm="http://www.corel.com/coreldraw/odm/2003"
 xmlns:svg="http://www.w3.org/2000/svg">
 <defs>
  <style type="text/css">
   <![CDATA[
    .fil0 {fill:#0171A8}
    .fil2 {fill:white}
    .fil3 {fill:#0171A8;fill-rule:nonzero}
    .fil1 {fill:white;fill-rule:nonzero}
   ]]>
  </style>
 </defs>
 <g id="Capa_x0020_1">
  <metadata id="CorelCorpID_0Corel-Layer"/>
  <g id="_2758393649232">
   <path id="Path_x0020_2" class="fil0" d="M182.11 61.73c1.71,0.3 4.84,1.5 7.06,2.6 2.23,1.1 7.48,4.6 11.62,7.8 4.13,3.2 12.82,10.21 19.18,15.61 6.36,5.4 20.29,18.41 30.89,28.82 10.5,10.5 22.62,23.21 26.76,28.11 4.14,4.9 10.5,12.81 14.03,17.51 3.53,4.7 7.57,10.3 8.78,12.51 1.52,2.6 2.33,5.7 2.33,9 0,4.1 -0.61,6 -3.84,11.01 -2.12,3.3 -8.58,11.8 -14.44,18.91 -5.75,7.1 -19.38,21.81 -30.18,32.61 -10.81,10.91 -24.24,23.72 -29.79,28.52 -5.55,4.8 -15.55,12.81 -22.21,17.81 -6.66,5 -13.63,9.6 -15.45,10.4 -1.71,0.71 -5.15,1.31 -7.57,1.31 -2.52,0 -5.65,-0.81 -7.77,-2.11 -1.92,-1.2 -6.26,-4.2 -9.6,-6.7 -3.33,-2.5 -11,-8.7 -17.16,-13.71 -6.16,-5 -17.47,-15.01 -25.24,-22.21 -7.77,-7.2 -20.29,-19.71 -27.76,-27.81 -7.48,-8.11 -17.67,-19.81 -22.62,-25.92 -4.85,-6.1 -9.79,-12.8 -10.8,-14.91 -1.01,-2 -1.92,-5.7 -1.92,-8.2 0,-2.5 0.71,-6 1.61,-7.8 0.91,-1.71 4.04,-6.11 6.77,-9.71 2.83,-3.6 8.98,-11 13.73,-16.51 4.74,-5.5 16.05,-17.61 25.24,-26.91 9.29,-9.21 21.5,-21.01 27.36,-26.02 5.86,-5.1 14.94,-12.6 20.19,-16.7 5.25,-4.11 12.12,-9.21 15.15,-11.41 3.03,-2.2 7.17,-4.5 9.08,-5.2 1.92,-0.7 4.85,-1 6.57,-0.7l0 0z"/>
   <path id="svg_4" class="fil1" d="M139.94 186.57c3.87,-5.06 6.68,-10.86 9.8,-16.75 0,1.53 0,3.05 -0.02,4.59 -0.02,3.06 -0.04,6.16 0.02,9.24 0.17,6.16 -0.94,12.02 -2.08,18 -0.99,5.07 -3.27,9.63 -5.11,13.85 -0.26,0.58 -0.5,1.24 -0.75,1.96 -1.45,3.88 -3.37,9.08 -9.08,7.66 -0.25,-0.06 -0.85,0.34 -0.85,0.54 -0.08,5.84 -6.98,4.56 -7.65,9.74 -4.78,1 -4.64,5.11 -4.51,9.31 0,0.22 0.02,0.4 0.02,0.6 0.1,2.42 0.22,4.86 -0.05,7.22 -0.53,4.48 0.97,5.6 4.78,5.58 19.08,-0.14 38.12,-0.12 57.19,-0.1 6.81,0 13.62,0.02 20.42,0.02 3.62,0 7.25,-0.02 10.86,-0.02 7.24,0 14.46,-0.02 21.71,0.02 2.18,0 3.09,-0.38 1.86,-3.18 -1.52,-3.5 -2.86,-6.98 -5.52,-9.7 -1.67,-1.71 -2.57,-4.22 -3.32,-6.95 -1.09,-3.94 -2.54,-7.82 -6.11,-10.52 -2.49,-1.9 -4.55,-5.38 -4.4,-9.94 0.04,-1.14 0.11,-2.28 0.21,-3.42 0.39,-5.74 0.78,-11.59 -3.8,-16.15 -0.29,-0.28 -0.29,-1.1 -0.24,-1.64 0.41,-4.2 -1.62,-6.32 -4.78,-7.68 -7.76,-3.36 -1.2,-10.97 -0.26,-12.35 0.28,-0.42 2.24,-1.28 2.53,-3.04 0.07,-0.4 -1.23,1.1 -1.72,0.62 -0.48,-0.46 0.04,-1.61 0.16,-1.84 0.22,-0.44 0.44,-0.89 0.66,-1.34 0.9,-1.88 3.33,-4.02 3.69,-3.53 0.2,0.28 0.6,0.38 0.8,0.2 0.12,-0.12 -0.32,-0.63 -0.45,-1.76 -0.11,-1.01 0.24,-2 0.23,-2.16 -0.19,-3.33 1.22,-7 1.37,-7.45 0.24,-0.74 1.42,-2.62 1.74,-5.41 0.4,-3.47 -0.04,-7.9 0.43,-8.09 0.02,-0.01 2.2,7.92 1.88,4.39 -0.13,-1.41 1.1,-5.58 -0.81,-11.76 -0.56,-1.81 -1.61,-2.08 -0.62,-3.93 0.46,-0.87 1.26,3.98 1.28,3.16 0.03,-0.82 1.2,-4.89 0.54,-6.73 -0.77,-2.14 -1.01,-4.83 -0.94,-4.93 0.93,-1.36 3.87,-1.75 4.89,-2.81 1.6,-1.68 1.07,-3.74 0.64,-3.96 -0.13,-0.07 -0.5,0.08 -0.58,-0.12l-0.59 -1.35c-0.07,-0.15 0.11,1.66 -0.02,1.72 -1.32,0.6 -3.24,1.74 -4.72,-0.35 -5.44,-7.69 2.84,-11.21 3.18,-10.38l0.99 2.44c0.08,0.2 0.04,-1.76 0.34,-2.62 0.03,-0.08 0.59,-0.12 0.54,-0.43 -0.09,-0.63 0.53,-3.06 0.43,-3.62 -0.12,-0.7 -0.45,-1.05 -0.69,-1.98 -0.2,-0.79 -3.34,-1.83 -5.85,-1.48 -1.41,0.2 -2.6,1.29 -4.03,0.57 -1.26,-0.63 -1.81,-3.3 -2.35,-3.47 -1.46,-0.47 -3.83,1.02 -5.34,0.96 -3.09,-0.12 -5.27,-1.09 -7.35,0.96 -1.5,1.45 -8.35,0.52 -9.75,2.15 -0.69,0.8 -0.76,1.92 -1.45,2.73l-0.9 1.19c-0.14,0.19 1.94,-0.13 2.1,0.71 0.09,0.43 0.35,-0.27 -1.2,0.3 -0.52,0.18 -1.44,1.39 -2.33,1.49 -0.53,0.06 3.18,1.59 -0.03,2.88 -1.46,0.59 -2.6,4.38 -2.68,6.13 -0.02,0.31 -0.65,2.11 -1.42,2.69 -2.23,1.69 -2.59,4.05 -2.26,3.92 0.43,-0.18 2.71,-2.57 1.83,2.89 -0.18,1.15 -0.89,0.55 -1.31,2.5 -0.14,0.59 -3.06,0.41 -5.09,6.01 -0.2,0.58 2.37,-1.18 2.37,-0.59 0,2.19 -1.8,6.74 -4.24,8.35 -4.26,2.76 -8.07,6.58 -12.47,8.89 -6.86,3.62 -10.71,9.56 -13.02,17.56 -2.22,7.76 -5.15,15.13 -10.03,21.25 -2.24,2.78 -4.55,4.32 -7.99,2.06 -1.62,-1.08 -3.82,-1.1 -5.89,-1.64 1.6,4.5 3.95,6.06 7.64,5.36 4.14,-0.8 6.97,-3.88 9.57,-7.32l-0.05 0.08zm58.96 -0.17c1.46,3.46 1.55,7.49 3.95,10.99 -7.68,1.14 -11.12,-2.74 -9.66,-10.33 0.05,-0.28 0.09,-0.6 0.1,-0.94 0.09,-1.12 0.21,-2.38 1.16,-2.14 1.5,0.34 3.48,0.02 4.46,2.42l-0.01 0zm-43.16 18.15c-0.13,-1.74 -0.17,-3.46 -0.27,-5.68 0.45,-5.59 0.65,-11.61 4.86,-16.37 1.65,-1.86 3.27,-2.9 5.16,-1.78 1.94,1.12 2.67,3.82 2.18,5.96 -1.03,4.36 -0.46,8.34 1.26,12.15 0.74,1.66 0.22,2 -0.91,2.74 -0.03,0.02 -0.06,0.06 -0.13,0.08 -3.26,2.1 -7.33,1.3 -10.37,4.1 -0.96,0.84 -1.71,0.08 -1.79,-1.2l0.01 0zm30.04 -14.03c-0.05,0.02 -0.08,0.02 -0.15,0.02 0,0.34 0.02,0.68 0.03,0.97 0.04,0.71 0.07,1.38 -0.05,2.06 -0.18,0.9 0.18,2 0.5,2.98 0.41,1.28 0.76,2.4 -0.17,2.68 -0.43,0.12 -0.85,0.3 -1.31,0.46 -2.22,0.88 -4.82,1.92 -6.78,-1.42 -0.27,-0.46 -1.18,-0.44 -1.74,-0.7 -4.26,-1.98 -4.94,-4.36 -2.64,-8.98 1.33,-2.67 3.7,-4.61 3.77,-8.25 0.03,-1.72 2.18,-1.9 3.45,-1.64 1.99,0.4 3.97,1.4 4.38,4.04 0.42,2.56 0.49,5.18 0.71,7.76l0 0.02z" data-paper-data="{&quot;isPathIcon&quot;:true}"/>
   <path id="Path_x0020_0" class="fil0" d="M180.58 9.33c3.84,0 5.25,0.5 7.57,2.8 1.52,1.5 5.46,6.51 8.79,11.21 3.23,4.7 11.41,15.21 18.17,23.41 6.66,8.31 15.85,19.11 20.29,24.02 4.55,5 16.56,17.5 26.76,27.71 10.19,10.2 23.82,23.11 30.19,28.61 6.36,5.51 17.06,14.21 23.72,19.41 6.66,5.21 15.95,12.21 20.7,15.61 4.74,3.31 10.6,7.31 13.12,8.91 2.93,1.9 5.35,4.5 6.77,7.4 1.51,2.9 2.12,5.41 1.71,7.01 -0.4,1.4 -1.61,3.6 -2.82,4.9 -1.11,1.2 -6.46,5.2 -11.71,8.6 -5.25,3.51 -14.54,10.21 -20.7,14.91 -6.16,4.8 -17.97,14.41 -26.25,21.41 -8.38,7.01 -24.43,21.91 -35.84,33.22 -11.41,11.31 -26.05,26.62 -32.51,34.02 -6.36,7.4 -16.76,20.01 -22.92,28.01 -6.16,8.01 -13.23,17.01 -15.55,20.01 -4.14,5.41 -4.44,5.51 -9.79,5.81 -3.43,0.1 -6.36,-0.3 -7.57,-1.1 -1.11,-0.8 -5.05,-5.81 -8.79,-11.31 -3.73,-5.4 -11.61,-16.01 -17.46,-23.41 -5.96,-7.41 -13.84,-16.91 -17.47,-21.01 -3.74,-4.1 -11.91,-13.11 -18.38,-19.91 -6.36,-6.81 -17.97,-18.31 -25.74,-25.42 -7.78,-7.2 -19.39,-17.31 -25.75,-22.71 -6.36,-5.3 -15.75,-12.81 -20.69,-16.71 -5.05,-3.8 -14.14,-10.5 -20.2,-14.81 -6.15,-4.3 -11.91,-8.7 -12.92,-9.9 -1.31,-1.5 -1.82,-3.7 -1.82,-7.61 0.1,-4.9 0.41,-5.8 3.34,-8.6 1.81,-1.7 7.87,-6.3 13.42,-10.11 5.56,-3.9 14.64,-10.5 20.2,-14.8 5.55,-4.31 14.63,-11.71 20.19,-16.41 5.55,-4.7 16.45,-14.51 24.23,-21.71 7.77,-7.21 20.59,-20.01 28.47,-28.52 7.77,-8.5 18.27,-20.11 23.22,-25.91 4.85,-5.81 14.74,-18.11 21.91,-27.32 7.17,-9.2 14.03,-17.41 15.14,-18.31 1.22,-0.8 4.25,-1.4 6.87,-1.4l0.1 0zm-23.93 57.93c-5.55,4.11 -14.84,11.61 -20.69,16.61 -5.76,4.9 -18.48,16.71 -28.27,26.11 -9.7,9.41 -21.81,21.82 -26.96,27.52 -5.15,5.7 -12.72,14.71 -16.96,19.91 -4.24,5.2 -9.29,12.71 -11.21,16.51 -3.03,5.8 -3.53,7.7 -3.03,11.01 0.41,2.2 1.92,6.1 3.43,8.7 1.52,2.6 6.87,10.01 12.02,16.51 5.05,6.5 14.84,17.91 21.71,25.31 6.86,7.41 20.49,20.71 30.18,29.62 9.7,8.8 21.21,19.11 25.75,23.01 4.54,3.8 11.81,9.41 16.15,12.51 4.34,3.1 10.2,6.8 13.03,8.3 3.03,1.6 6.66,2.6 9.08,2.6 2.23,0 6.06,-1 8.59,-2.1 2.52,-1.1 8.88,-5.2 14.13,-9.1 5.25,-4 13.73,-10.51 18.68,-14.71 4.95,-4.1 18.78,-17.01 30.69,-28.62 11.81,-11.5 27.66,-28.21 35.03,-37.01 7.48,-8.81 15.55,-19.62 18.08,-24.02 3.33,-5.8 4.54,-9.1 4.54,-12 0,-2.21 -0.91,-5.81 -1.92,-8.01 -1.01,-2.2 -5.85,-9.4 -10.9,-16.01 -4.95,-6.6 -13.33,-16.91 -18.48,-23.01 -5.25,-6.1 -15.45,-17.01 -22.71,-24.41 -7.17,-7.31 -18.38,-18.01 -24.74,-23.62 -6.36,-5.6 -16.56,-14.2 -22.72,-19 -6.15,-4.81 -13.83,-10.11 -17.16,-11.61 -4.54,-2.2 -7.57,-2.9 -12.12,-2.9 -4.44,0 -7.06,0.6 -9.59,2.1 -1.92,1.2 -8.07,5.6 -13.63,9.8l0 0z"/>
   <g>
    <path id="Path_x0020_2_0" class="fil2" d="M97.83 167.22c-7.11,1.99 -14.36,4.89 -18.56,7.22 -4.35,2.49 -7.25,4.98 -7.83,6.63 -0.44,1.5 -0.29,3.66 0.29,4.82 0.72,1.16 2.9,3.15 4.93,4.48 2.03,1.33 7.68,3.48 12.47,4.89 4.78,1.33 13.2,3.4 18.85,4.48 5.51,1.08 17.26,2.74 26.1,3.74 12.76,1.49 21.03,1.82 42.78,1.82 15.08,0 31.47,-0.41 37.7,-0.99 5.95,-0.59 16.1,-1.83 22.48,-2.74 6.38,-0.91 16.1,-2.82 21.46,-4.32 5.8,-1.49 12.18,-3.98 14.94,-5.8 3.62,-2.24 4.93,-3.82 4.93,-5.98 0,-1.57 -1.02,-4.06 -2.18,-5.39 -1.3,-1.41 -5.8,-3.82 -10.15,-5.39 -4.49,-1.58 -7.97,-3.24 -7.97,-3.74 0,-0.49 0.72,-1.07 1.74,-1.41 1.01,-0.25 -6.97,-1.74 -17.7,-3.23 -10.87,-1.5 -19.86,-2.74 -20.01,-2.82 -0.14,0 1.16,2.4 2.9,5.31 3.19,5.22 3.34,5.31 7.69,4.56 2.32,-0.41 6.23,-0.75 8.7,-0.75 2.32,0 7.68,1.16 11.89,2.49 4.35,1.41 8.56,3.57 9.86,4.98 1.16,1.33 2.18,3.4 2.18,4.56 0,1.17 -1.6,3.07 -3.48,4.32 -1.89,1.33 -6.67,3.32 -10.59,4.56 -3.77,1.25 -14.21,3.24 -22.91,4.56 -14.65,2.08 -18.42,2.24 -43.5,2.33 -21.61,0 -30.31,-0.33 -39.88,-1.5 -6.82,-0.91 -15.95,-2.32 -20.3,-3.23 -4.5,-1 -10.44,-3.07 -13.49,-4.73 -3.77,-2.16 -5.36,-3.73 -5.36,-5.48 0,-1.91 1.74,-3.48 7.54,-6.72 6.23,-3.4 9.71,-4.56 18.56,-6.14 5.94,-1.08 11.31,-2.15 11.89,-2.4 0.58,-0.33 -3.63,-2.24 -9.43,-4.4 -5.8,-2.16 -11.16,-3.9 -11.89,-3.9 -0.87,0 -4.06,0.5 -7.25,1.08 -3.19,0.58 -11.02,2.49 -17.4,4.23l0 0z"/>
    <path id="1" class="fil3" d="M80.71 175.62l-2.88 -2.37 0.02 -0.01 0.42 -0.23 0.44 -0.23 0.45 -0.23 0.47 -0.24 0.48 -0.23 0.5 -0.24 0.51 -0.24 0.52 -0.25 0.54 -0.24 0.55 -0.24 0.56 -0.25 0.57 -0.24 0.59 -0.24 0.59 -0.25 0.6 -0.24 0.62 -0.24 0.62 -0.24 0.62 -0.24 0.64 -0.24 0.64 -0.24 0.65 -0.23 0.66 -0.23 0.65 -0.23 0.67 -0.23 0.67 -0.22 0.67 -0.22 0.67 -0.22 0.68 -0.21 0.68 -0.21 0.68 -0.2 0.68 -0.2 0.68 -0.19 2.02 2.72 -0.65 0.19 -0.65 0.19 -0.66 0.19 -0.65 0.2 -0.65 0.21 -0.65 0.2 -0.65 0.21 -0.64 0.22 -0.64 0.22 -0.64 0.22 -0.63 0.22 -0.62 0.23 -0.62 0.23 -0.62 0.23 -0.6 0.23 -0.6 0.23 -0.59 0.23 -0.58 0.24 -0.57 0.23 -0.56 0.23 -0.55 0.24 -0.54 0.23 -0.52 0.23 -0.51 0.24 -0.5 0.23 -0.49 0.22 -0.47 0.23 -0.45 0.22 -0.44 0.22 -0.42 0.22 -0.41 0.21 -0.38 0.21 0.02 -0.01zm-2.88 -2.37l0.02 -0.01 0.01 0 -0.03 0.01zm-4.37 8.33l-4.04 -1.01 0.01 -0.05 0.09 -0.21 0.09 -0.22 0.12 -0.21 0.12 -0.21 0.14 -0.22 0.15 -0.21 0.16 -0.21 0.17 -0.22 0.19 -0.21 0.2 -0.22 0.21 -0.22 0.21 -0.22 0.24 -0.22 0.24 -0.23 0.25 -0.22 0.26 -0.23 0.27 -0.23 0.29 -0.23 0.29 -0.23 0.31 -0.23 0.31 -0.24 0.33 -0.23 0.33 -0.24 0.34 -0.24 0.36 -0.24 0.36 -0.23 0.37 -0.24 0.38 -0.24 0.39 -0.24 0.4 -0.24 0.41 -0.24 0.42 -0.25 2.88 2.37 -0.39 0.23 -0.38 0.22 -0.37 0.23 -0.37 0.22 -0.35 0.23 -0.35 0.22 -0.34 0.22 -0.32 0.22 -0.32 0.22 -0.3 0.21 -0.3 0.22 -0.28 0.21 -0.28 0.21 -0.26 0.21 -0.25 0.2 -0.24 0.2 -0.23 0.2 -0.22 0.2 -0.21 0.19 -0.19 0.18 -0.18 0.19 -0.17 0.17 -0.15 0.18 -0.15 0.16 -0.13 0.16 -0.11 0.16 -0.11 0.15 -0.09 0.13 -0.07 0.13 -0.07 0.12 -0.05 0.12 -0.04 0.1 0.02 -0.05zm-4.04 -1.01l0.01 -0.02 0 -0.03 -0.01 0.05zm4.17 4.92l-3.73 0.79 -0.06 -0.11 -0.08 -0.16 -0.07 -0.16 -0.06 -0.16 -0.06 -0.16 -0.05 -0.17 -0.05 -0.16 -0.04 -0.17 -0.05 -0.17 -0.03 -0.18 -0.04 -0.17 -0.03 -0.17 -0.02 -0.18 -0.02 -0.18 -0.02 -0.18 -0.02 -0.18 -0.02 -0.18 0 -0.18 -0.01 -0.19 0 -0.18 0 -0.18 0 -0.19 0.01 -0.18 0.01 -0.18 0.01 -0.19 0.02 -0.17 0.02 -0.18 0.03 -0.18 0.03 -0.18 0.03 -0.17 0.04 -0.18 0.04 -0.17 0.05 -0.17 4.04 1.01 -0.03 0.11 -0.03 0.12 -0.03 0.13 -0.02 0.12 -0.03 0.14 -0.02 0.13 -0.01 0.14 -0.02 0.14 -0.01 0.14 -0.01 0.15 0 0.14 -0.01 0.15 0 0.15 0.01 0.14 0 0.15 0.01 0.14 0.01 0.14 0.01 0.15 0.02 0.14 0.02 0.14 0.02 0.13 0.02 0.14 0.02 0.12 0.03 0.12 0.03 0.12 0.03 0.11 0.03 0.11 0.03 0.1 0.03 0.09 0.04 0.08 0.03 0.08 0.03 0.07 -0.07 -0.12zm-3.73 0.79l-0.03 -0.05 -0.03 -0.06 0.06 0.11zm8.06 3.1l-2.53 1.98 0 0 -0.21 -0.15 -0.21 -0.14 -0.22 -0.15 -0.21 -0.15 -0.21 -0.15 -0.21 -0.16 -0.21 -0.16 -0.21 -0.16 -0.2 -0.16 -0.2 -0.16 -0.2 -0.16 -0.19 -0.17 -0.2 -0.16 -0.19 -0.17 -0.18 -0.16 -0.19 -0.17 -0.18 -0.16 -0.17 -0.17 -0.18 -0.16 -0.16 -0.17 -0.17 -0.16 -0.15 -0.16 -0.16 -0.16 -0.15 -0.16 -0.14 -0.16 -0.13 -0.16 -0.13 -0.15 -0.13 -0.16 -0.12 -0.15 -0.11 -0.16 -0.11 -0.15 -0.1 -0.16 3.73 -0.79 0.05 0.07 0.05 0.07 0.07 0.09 0.07 0.09 0.08 0.11 0.09 0.1 0.1 0.12 0.1 0.12 0.11 0.11 0.12 0.13 0.13 0.13 0.13 0.13 0.13 0.13 0.14 0.13 0.15 0.14 0.15 0.14 0.15 0.14 0.16 0.14 0.16 0.13 0.16 0.14 0.17 0.14 0.16 0.14 0.17 0.13 0.17 0.14 0.18 0.13 0.17 0.13 0.17 0.13 0.17 0.12 0.17 0.12 0.17 0.12 0.17 0.12 0.16 0.11 0 0zm11.69 4.54l-0.96 2.68 -0.04 -0.01 -0.47 -0.14 -0.47 -0.14 -0.48 -0.15 -0.48 -0.15 -0.47 -0.15 -0.48 -0.16 -0.48 -0.16 -0.48 -0.16 -0.47 -0.17 -0.47 -0.16 -0.48 -0.17 -0.47 -0.17 -0.46 -0.17 -0.45 -0.17 -0.46 -0.17 -0.44 -0.17 -0.44 -0.17 -0.43 -0.17 -0.42 -0.17 -0.41 -0.17 -0.4 -0.17 -0.39 -0.17 -0.38 -0.17 -0.37 -0.17 -0.35 -0.17 -0.34 -0.16 -0.32 -0.16 -0.32 -0.16 -0.3 -0.17 -0.3 -0.16 -0.27 -0.17 -0.27 -0.16 2.53 -1.98 0.14 0.09 0.17 0.1 0.19 0.1 0.21 0.12 0.24 0.12 0.27 0.13 0.28 0.14 0.3 0.14 0.31 0.14 0.34 0.15 0.34 0.15 0.36 0.15 0.37 0.16 0.38 0.15 0.4 0.16 0.4 0.16 0.42 0.16 0.42 0.16 0.42 0.15 0.44 0.16 0.44 0.16 0.44 0.16 0.45 0.16 0.44 0.15 0.45 0.15 0.45 0.15 0.45 0.15 0.45 0.14 0.45 0.14 0.44 0.14 0.44 0.13 0.43 0.13 -0.04 -0.01zm-0.96 2.68l-0.04 -0.01 0.08 0.02 -0.04 -0.01zm19.58 1.75l-0.5 2.79 0.02 0 -0.55 -0.11 -0.57 -0.11 -0.58 -0.11 -0.59 -0.13 -0.6 -0.12 -0.61 -0.13 -0.62 -0.14 -0.63 -0.14 -0.63 -0.14 -0.64 -0.14 -0.64 -0.15 -0.65 -0.15 -0.64 -0.15 -0.65 -0.15 -0.65 -0.15 -0.65 -0.16 -0.64 -0.15 -0.64 -0.16 -0.64 -0.15 -0.62 -0.16 -0.62 -0.15 -0.61 -0.16 -0.61 -0.15 -0.59 -0.15 -0.58 -0.15 -0.57 -0.15 -0.55 -0.15 -0.54 -0.14 -0.52 -0.14 -0.51 -0.13 -0.49 -0.14 -0.47 -0.13 0.96 -2.68 0.45 0.13 0.47 0.12 0.49 0.14 0.51 0.13 0.52 0.14 0.54 0.14 0.56 0.15 0.57 0.14 0.58 0.15 0.59 0.15 0.6 0.15 0.61 0.16 0.62 0.15 0.62 0.15 0.63 0.15 0.63 0.16 0.64 0.15 0.63 0.15 0.64 0.15 0.63 0.15 0.63 0.14 0.63 0.15 0.62 0.14 0.62 0.13 0.61 0.14 0.61 0.13 0.59 0.13 0.58 0.12 0.56 0.11 0.56 0.12 0.54 0.1 0.52 0.1 0.02 0.01zm-0.02 -0.01l0.02 0.01 0.11 0.02 -0.13 -0.03zm25.89 3.7l-0.03 2.87 0.01 0 -0.84 -0.1 -0.86 -0.1 -0.88 -0.1 -0.88 -0.11 -0.9 -0.11 -0.9 -0.11 -0.91 -0.11 -0.91 -0.12 -0.92 -0.12 -0.92 -0.12 -0.92 -0.12 -0.92 -0.12 -0.92 -0.13 -0.91 -0.12 -0.9 -0.13 -0.9 -0.13 -0.89 -0.13 -0.87 -0.12 -0.87 -0.13 -0.85 -0.13 -0.83 -0.12 -0.81 -0.13 -0.8 -0.12 -0.77 -0.13 -0.76 -0.12 -0.72 -0.12 -0.71 -0.12 -0.67 -0.11 -0.65 -0.11 -0.62 -0.12 -0.58 -0.11 -0.56 -0.1 0.5 -2.79 0.51 0.1 0.56 0.1 0.58 0.1 0.63 0.11 0.65 0.12 0.68 0.11 0.71 0.12 0.73 0.12 0.76 0.12 0.78 0.12 0.8 0.12 0.83 0.13 0.83 0.12 0.85 0.13 0.87 0.12 0.87 0.13 0.89 0.12 0.89 0.13 0.9 0.12 0.91 0.13 0.91 0.12 0.91 0.12 0.91 0.12 0.91 0.12 0.9 0.11 0.9 0.11 0.89 0.12 0.89 0.1 0.87 0.11 0.86 0.1 0.84 0.1 0.84 0.09 0.01 0zm-0.01 0l0.01 0 0.06 0.01 -0.07 -0.01zm42.44 1.81l0.66 2.9 0 0 -2.01 0 -1.92 0 -1.86 -0.01 -1.79 0 -1.72 -0.01 -1.66 -0.02 -1.6 -0.01 -1.55 -0.02 -1.49 -0.02 -1.45 -0.03 -1.4 -0.03 -1.36 -0.03 -1.32 -0.04 -1.28 -0.04 -1.25 -0.04 -1.22 -0.05 -1.2 -0.06 -1.18 -0.05 -1.15 -0.07 -1.14 -0.06 -1.13 -0.08 -1.12 -0.07 -1.11 -0.09 -1.1 -0.09 -1.11 -0.09 -1.11 -0.1 -1.11 -0.11 -1.13 -0.11 -1.14 -0.12 -1.15 -0.12 -1.17 -0.13 -1.19 -0.14 0.03 -2.87 1.17 0.14 1.15 0.13 1.13 0.12 1.12 0.12 1.09 0.11 1.09 0.1 1.08 0.1 1.08 0.09 1.07 0.09 1.08 0.08 1.09 0.07 1.1 0.07 1.1 0.07 1.13 0.06 1.15 0.06 1.16 0.05 1.2 0.05 1.23 0.04 1.26 0.04 1.3 0.04 1.34 0.03 1.38 0.03 1.43 0.02 1.48 0.02 1.53 0.02 1.59 0.02 1.65 0.01 1.71 0.01 1.78 0.01 1.85 0.01 1.92 0 1.99 0 0 0zm37.44 -0.98l1.19 2.87 -0.02 0.01 -0.64 0.05 -0.69 0.06 -0.74 0.05 -0.8 0.05 -0.84 0.05 -0.9 0.05 -0.93 0.05 -0.98 0.05 -1.03 0.04 -1.06 0.04 -1.1 0.05 -1.14 0.04 -1.17 0.03 -1.2 0.04 -1.23 0.04 -1.26 0.03 -1.29 0.03 -1.31 0.04 -1.33 0.02 -1.35 0.03 -1.36 0.03 -1.39 0.02 -1.39 0.02 -1.41 0.02 -1.42 0.02 -1.42 0.01 -1.43 0.01 -1.43 0.01 -1.43 0.01 -1.43 0.01 -1.43 0 -1.42 0 -0.66 -2.9 1.42 0 1.42 0 1.42 -0.01 1.42 -0.01 1.42 -0.01 1.42 -0.01 1.42 -0.02 1.4 -0.01 1.4 -0.02 1.39 -0.02 1.37 -0.03 1.36 -0.02 1.34 -0.03 1.32 -0.03 1.3 -0.03 1.28 -0.03 1.25 -0.03 1.22 -0.04 1.19 -0.04 1.16 -0.03 1.12 -0.05 1.09 -0.04 1.04 -0.04 1.01 -0.04 0.96 -0.05 0.92 -0.04 0.86 -0.05 0.82 -0.05 0.77 -0.05 0.71 -0.05 0.64 -0.05 0.59 -0.05 -0.01 0zm1.19 2.87l-0.02 0.01 0 0 0.02 -0.01zm21.17 -5.6l1.42 2.85 0 0 -0.62 0.09 -0.63 0.09 -0.65 0.09 -0.67 0.09 -0.69 0.09 -0.7 0.1 -0.71 0.09 -0.73 0.1 -0.74 0.09 -0.74 0.1 -0.75 0.1 -0.76 0.09 -0.76 0.1 -0.77 0.09 -0.77 0.1 -0.77 0.09 -0.76 0.1 -0.77 0.09 -0.76 0.09 -0.75 0.09 -0.75 0.09 -0.74 0.08 -0.72 0.09 -0.72 0.08 -0.71 0.07 -0.69 0.08 -0.67 0.07 -0.66 0.08 -0.64 0.06 -0.62 0.07 -0.6 0.06 -0.57 0.05 -1.19 -2.87 0.56 -0.06 0.59 -0.06 0.61 -0.06 0.63 -0.07 0.65 -0.07 0.67 -0.07 0.68 -0.08 0.69 -0.07 0.71 -0.08 0.73 -0.09 0.73 -0.08 0.74 -0.09 0.75 -0.09 0.75 -0.09 0.76 -0.09 0.76 -0.09 0.77 -0.09 0.76 -0.1 0.76 -0.09 0.76 -0.1 0.75 -0.09 0.75 -0.1 0.73 -0.09 0.73 -0.1 0.72 -0.1 0.71 -0.09 0.7 -0.09 0.68 -0.09 0.66 -0.09 0.64 -0.09 0.63 -0.09 0.6 -0.09 0 0zm21.21 -4.26l1.93 2.75 0.04 -0.01 -0.53 0.14 -0.56 0.15 -0.58 0.15 -0.59 0.15 -0.62 0.15 -0.63 0.15 -0.65 0.16 -0.67 0.15 -0.67 0.15 -0.69 0.15 -0.71 0.16 -0.7 0.15 -0.72 0.15 -0.73 0.15 -0.73 0.15 -0.74 0.15 -0.74 0.15 -0.74 0.14 -0.74 0.14 -0.74 0.14 -0.73 0.14 -0.74 0.13 -0.73 0.13 -0.72 0.13 -0.71 0.13 -0.7 0.11 -0.7 0.12 -0.68 0.11 -0.67 0.11 -0.65 0.1 -0.63 0.09 -0.62 0.09 -1.42 -2.85 0.6 -0.08 0.61 -0.1 0.64 -0.09 0.64 -0.11 0.67 -0.11 0.67 -0.11 0.69 -0.11 0.7 -0.12 0.7 -0.13 0.72 -0.13 0.71 -0.13 0.73 -0.13 0.72 -0.14 0.73 -0.14 0.73 -0.14 0.72 -0.14 0.72 -0.15 0.72 -0.15 0.71 -0.14 0.71 -0.15 0.69 -0.15 0.68 -0.15 0.68 -0.15 0.66 -0.15 0.64 -0.15 0.63 -0.15 0.61 -0.14 0.59 -0.15 0.58 -0.14 0.54 -0.14 0.53 -0.14 0.49 -0.14 0.05 -0.01zm-0.05 0.01l0 0 0.05 -0.01 -0.05 0.01zm14.46 -5.6l2.98 2.31 0.04 -0.02 -0.3 0.19 -0.32 0.19 -0.34 0.2 -0.35 0.2 -0.37 0.2 -0.39 0.2 -0.4 0.2 -0.41 0.2 -0.43 0.2 -0.45 0.2 -0.45 0.2 -0.47 0.21 -0.48 0.2 -0.49 0.2 -0.5 0.2 -0.51 0.2 -0.51 0.2 -0.53 0.2 -0.53 0.2 -0.54 0.19 -0.55 0.19 -0.55 0.19 -0.55 0.19 -0.56 0.18 -0.57 0.18 -0.56 0.18 -0.56 0.17 -0.57 0.17 -0.57 0.16 -0.56 0.16 -0.57 0.15 -0.56 0.15 -1.93 -2.75 0.52 -0.14 0.53 -0.14 0.54 -0.15 0.53 -0.16 0.54 -0.15 0.53 -0.17 0.54 -0.16 0.53 -0.17 0.53 -0.18 0.53 -0.17 0.52 -0.19 0.52 -0.18 0.52 -0.18 0.5 -0.19 0.5 -0.19 0.49 -0.18 0.48 -0.19 0.47 -0.19 0.46 -0.19 0.45 -0.19 0.43 -0.19 0.43 -0.19 0.4 -0.19 0.4 -0.18 0.37 -0.18 0.36 -0.18 0.35 -0.18 0.32 -0.17 0.3 -0.17 0.28 -0.16 0.26 -0.16 0.24 -0.15 0.04 -0.03zm-0.04 0.03l0.04 -0.03 -0.01 0 -0.03 0.03zm4.4 -5.08l4.12 0.46 0 0 -0.01 0.24 -0.01 0.24 -0.03 0.23 -0.03 0.24 -0.04 0.23 -0.06 0.23 -0.07 0.23 -0.07 0.23 -0.09 0.22 -0.1 0.23 -0.12 0.21 -0.12 0.22 -0.13 0.22 -0.14 0.21 -0.16 0.21 -0.17 0.21 -0.18 0.21 -0.18 0.2 -0.2 0.21 -0.21 0.2 -0.22 0.2 -0.23 0.2 -0.24 0.21 -0.26 0.2 -0.26 0.21 -0.28 0.2 -0.28 0.2 -0.3 0.21 -0.31 0.21 -0.32 0.21 -0.34 0.22 -0.34 0.21 -2.98 -2.31 0.32 -0.2 0.3 -0.19 0.29 -0.2 0.28 -0.18 0.26 -0.18 0.25 -0.19 0.24 -0.17 0.22 -0.17 0.21 -0.17 0.19 -0.16 0.19 -0.16 0.17 -0.16 0.16 -0.15 0.15 -0.16 0.13 -0.15 0.13 -0.14 0.11 -0.15 0.11 -0.14 0.1 -0.14 0.08 -0.14 0.08 -0.14 0.07 -0.14 0.06 -0.13 0.06 -0.14 0.05 -0.15 0.04 -0.14 0.03 -0.14 0.03 -0.15 0.02 -0.14 0.02 -0.16 0.01 -0.16 0 -0.16 0 0zm-1.79 -4.51l3.34 -1.3 0.04 0.04 0.14 0.17 0.14 0.17 0.13 0.17 0.13 0.18 0.12 0.18 0.12 0.19 0.12 0.18 0.11 0.19 0.11 0.2 0.11 0.19 0.1 0.2 0.1 0.19 0.09 0.21 0.1 0.2 0.09 0.2 0.08 0.21 0.08 0.2 0.08 0.21 0.07 0.2 0.07 0.21 0.06 0.2 0.07 0.21 0.05 0.21 0.05 0.2 0.05 0.2 0.04 0.2 0.03 0.2 0.03 0.19 0.03 0.2 0.01 0.19 0.01 0.19 0.01 0.19 -4.12 -0.46 0 -0.11 -0.01 -0.12 -0.01 -0.13 -0.02 -0.13 -0.02 -0.14 -0.02 -0.14 -0.03 -0.15 -0.04 -0.15 -0.04 -0.16 -0.04 -0.16 -0.05 -0.16 -0.05 -0.16 -0.05 -0.17 -0.06 -0.16 -0.07 -0.17 -0.06 -0.16 -0.07 -0.17 -0.07 -0.16 -0.07 -0.16 -0.08 -0.16 -0.08 -0.15 -0.08 -0.16 -0.08 -0.15 -0.08 -0.14 -0.08 -0.14 -0.09 -0.14 -0.08 -0.12 -0.08 -0.12 -0.09 -0.12 -0.07 -0.11 -0.08 -0.09 -0.07 -0.09 0.03 0.04zm3.34 -1.3l0.01 0 0.03 0.04 -0.04 -0.04zm-12.49 -3.46l1.34 -2.56 0.03 0.01 0.43 0.16 0.44 0.16 0.43 0.17 0.43 0.17 0.43 0.18 0.43 0.18 0.42 0.18 0.42 0.18 0.41 0.19 0.41 0.19 0.41 0.19 0.4 0.19 0.39 0.19 0.39 0.2 0.37 0.19 0.37 0.2 0.37 0.19 0.35 0.2 0.34 0.19 0.34 0.2 0.32 0.19 0.31 0.19 0.31 0.2 0.29 0.19 0.28 0.19 0.27 0.19 0.26 0.19 0.24 0.19 0.24 0.19 0.22 0.19 0.21 0.2 0.19 0.2 -3.34 1.3 -0.07 -0.07 -0.09 -0.08 -0.11 -0.1 -0.13 -0.11 -0.16 -0.12 -0.18 -0.13 -0.19 -0.14 -0.21 -0.14 -0.22 -0.15 -0.24 -0.15 -0.26 -0.16 -0.27 -0.16 -0.28 -0.16 -0.3 -0.17 -0.3 -0.17 -0.32 -0.17 -0.32 -0.17 -0.34 -0.17 -0.34 -0.17 -0.35 -0.17 -0.35 -0.18 -0.36 -0.16 -0.37 -0.17 -0.37 -0.17 -0.38 -0.17 -0.37 -0.16 -0.38 -0.16 -0.39 -0.16 -0.38 -0.15 -0.38 -0.15 -0.38 -0.14 -0.39 -0.14 0.03 0.01zm1.34 -2.56l0.03 0.01 -0.06 -0.02 0.03 0.01zm-10.7 -2.69l4.11 0.46 0 0 -0.06 -0.33 -0.11 -0.22 -0.1 -0.13 -0.06 -0.07 -0.02 -0.01 0.02 0.01 0.04 0.03 0.07 0.05 0.11 0.07 0.13 0.07 0.15 0.08 0.17 0.1 0.19 0.09 0.2 0.1 0.23 0.11 0.23 0.12 0.25 0.11 0.27 0.13 0.28 0.12 0.29 0.13 0.31 0.13 0.31 0.13 0.33 0.14 0.34 0.14 0.35 0.13 0.35 0.14 0.37 0.14 0.38 0.15 0.38 0.14 0.39 0.14 0.4 0.14 0.4 0.15 -1.34 2.56 -0.43 -0.15 -0.43 -0.16 -0.42 -0.15 -0.41 -0.16 -0.4 -0.15 -0.4 -0.15 -0.4 -0.16 -0.38 -0.15 -0.36 -0.15 -0.37 -0.15 -0.35 -0.14 -0.34 -0.15 -0.33 -0.14 -0.32 -0.15 -0.31 -0.14 -0.3 -0.14 -0.28 -0.13 -0.27 -0.14 -0.27 -0.13 -0.26 -0.13 -0.23 -0.13 -0.23 -0.13 -0.22 -0.12 -0.21 -0.13 -0.2 -0.13 -0.21 -0.15 -0.19 -0.14 -0.19 -0.17 -0.2 -0.2 -0.2 -0.26 -0.17 -0.33 -0.08 -0.44 0 0zm2.86 -2.56l1.88 2.76 0.15 -0.04 -0.05 0.02 -0.06 0.02 -0.05 0.02 -0.06 0.02 -0.06 0.03 -0.03 0.01 -0.05 0.03 -0.06 0.02 -0.05 0.03 -0.04 0.02 -0.03 0.02 -0.04 0.03 -0.04 0.02 -0.02 0.02 -0.03 0.02 -0.03 0.03 -0.03 0.02 -0.02 0.02 -0.02 0.01 0 0.01 -0.02 0.02 -0.01 0.01 -0.01 0.01 0 0 0 0 0.01 -0.02 0 0 0.01 -0.01 0 -0.02 0.01 -0.03 0 -0.04 0 -0.04 -4.11 -0.46 0 -0.13 0.02 -0.13 0.03 -0.12 0.03 -0.12 0.04 -0.11 0.05 -0.1 0.06 -0.11 0.06 -0.1 0.07 -0.1 0.06 -0.08 0.07 -0.09 0.07 -0.08 0.09 -0.08 0.08 -0.09 0.09 -0.07 0.09 -0.07 0.08 -0.07 0.1 -0.07 0.1 -0.07 0.1 -0.07 0.1 -0.06 0.11 -0.07 0.11 -0.06 0.11 -0.05 0.11 -0.06 0.11 -0.05 0.13 -0.06 0.12 -0.05 0.12 -0.05 0.13 -0.05 0.13 -0.05 0.13 -0.04 0.16 -0.05zm-0.16 0.05l0.08 -0.03 0.08 -0.02 -0.16 0.05zm-16.67 -0.48l0.15 -2.85 0.01 0 1 0.15 0.99 0.14 0.96 0.14 0.95 0.14 0.94 0.13 0.9 0.14 0.88 0.14 0.87 0.13 0.83 0.14 0.81 0.13 0.78 0.13 0.76 0.12 0.72 0.13 0.69 0.12 0.67 0.12 0.63 0.11 0.6 0.11 0.56 0.11 0.53 0.1 0.5 0.11 0.46 0.09 0.42 0.1 0.39 0.09 0.36 0.09 0.33 0.08 0.32 0.1 0.32 0.11 0.37 0.15 0.53 0.32 0.66 0.95 -0.48 1.12 -0.7 0.3 -1.88 -2.76 -0.57 0.26 -0.44 1.04 0.59 0.87 0.37 0.23 0.11 0.04 -0.04 -0.01 -0.13 -0.04 -0.2 -0.05 -0.26 -0.07 -0.32 -0.07 -0.37 -0.08 -0.41 -0.09 -0.45 -0.09 -0.49 -0.1 -0.54 -0.1 -0.57 -0.11 -0.6 -0.11 -0.64 -0.11 -0.68 -0.12 -0.71 -0.12 -0.73 -0.12 -0.76 -0.13 -0.8 -0.13 -0.82 -0.13 -0.84 -0.13 -0.87 -0.13 -0.9 -0.14 -0.91 -0.14 -0.94 -0.13 -0.95 -0.14 -0.98 -0.14 -0.99 -0.14 0.01 0zm0.15 -2.85l0.01 0 -0.19 -0.02 0.18 0.02zm-19.76 0.06l-0.65 -2.9 1.46 0.38 -0.78 -0.3 -0.01 -0.01 0.09 0.02 0.16 0.03 0.22 0.03 0.27 0.04 0.32 0.05 0.36 0.05 0.4 0.06 0.45 0.07 0.48 0.07 0.52 0.07 0.56 0.08 0.59 0.08 0.64 0.09 0.66 0.1 0.69 0.09 0.73 0.1 0.75 0.11 0.78 0.11 0.81 0.11 0.83 0.11 0.86 0.12 0.88 0.12 0.9 0.13 0.92 0.13 0.94 0.13 0.95 0.13 0.98 0.13 0.99 0.14 1 0.13 1.01 0.14 -0.15 2.85 -1.01 -0.14 -1.01 -0.13 -0.99 -0.14 -0.97 -0.14 -0.96 -0.13 -0.93 -0.13 -0.93 -0.12 -0.9 -0.13 -0.88 -0.12 -0.86 -0.12 -0.83 -0.11 -0.81 -0.12 -0.78 -0.11 -0.75 -0.1 -0.73 -0.1 -0.7 -0.1 -0.66 -0.09 -0.64 -0.09 -0.6 -0.09 -0.56 -0.08 -0.53 -0.07 -0.49 -0.07 -0.45 -0.07 -0.41 -0.06 -0.37 -0.05 -0.33 -0.05 -0.29 -0.05 -0.25 -0.04 -0.22 -0.03 -0.18 -0.03 -0.19 -0.04 -0.86 -0.33 1.46 0.39zm-0.65 -2.9l0.79 0 0.67 0.38 -1.46 -0.38zm5.1 6.37l-3.75 0.77 -0.01 -0.01 -0.16 -0.27 -0.16 -0.27 -0.16 -0.27 -0.15 -0.26 -0.15 -0.26 -0.15 -0.25 -0.15 -0.25 -0.14 -0.25 -0.13 -0.23 -0.13 -0.23 -0.13 -0.23 -0.13 -0.22 -0.12 -0.21 -0.11 -0.2 -0.11 -0.2 -0.1 -0.19 -0.1 -0.19 -0.09 -0.17 -0.09 -0.16 -0.08 -0.16 -0.08 -0.15 -0.07 -0.13 -0.06 -0.14 -0.06 -0.12 -0.06 -0.11 -0.04 -0.11 -0.05 -0.1 -0.04 -0.11 -0.04 -0.13 -0.04 -0.21 0.06 -0.48 1.68 -0.87 0.65 2.9 1.66 -0.86 0.06 -0.45 -0.03 -0.13 -0.01 -0.04 0 0.01 0.02 0.04 0.03 0.06 0.04 0.08 0.04 0.1 0.05 0.1 0.06 0.12 0.07 0.13 0.07 0.14 0.09 0.15 0.08 0.17 0.1 0.17 0.1 0.18 0.1 0.19 0.11 0.2 0.11 0.2 0.12 0.21 0.13 0.22 0.13 0.23 0.13 0.23 0.14 0.24 0.14 0.24 0.14 0.25 0.15 0.25 0.15 0.26 0.16 0.26 0.15 0.26 0.16 0.27 0 -0.01zm-3.75 0.77l-0.01 -0.01 -0.03 -0.05 0.04 0.06zm8.77 2.77l1.58 2.82 -0.01 0 -0.41 0.07 -0.38 0.07 -0.38 0.06 -0.36 0.05 -0.37 0.05 -0.35 0.03 -0.36 0.03 -0.37 0.02 -0.38 0 -0.39 -0.02 -0.42 -0.05 -0.42 -0.08 -0.44 -0.11 -0.42 -0.14 -0.4 -0.18 -0.38 -0.21 -0.34 -0.22 -0.31 -0.23 -0.28 -0.24 -0.26 -0.25 -0.24 -0.26 -0.23 -0.27 -0.22 -0.28 -0.23 -0.3 -0.22 -0.32 -0.23 -0.33 -0.23 -0.35 -0.24 -0.38 -0.25 -0.4 -0.26 -0.42 -0.28 -0.45 -0.29 -0.48 3.75 -0.77 0.29 0.47 0.27 0.45 0.25 0.41 0.24 0.38 0.23 0.35 0.21 0.31 0.19 0.29 0.18 0.26 0.17 0.23 0.16 0.19 0.14 0.17 0.12 0.13 0.1 0.1 0.08 0.07 0.05 0.04 0.03 0.01 -0.02 0 -0.02 -0.01 -0.03 -0.01 -0.02 -0.01 0 0 0.02 0 0.08 0.01 0.12 -0.01 0.15 0 0.19 -0.02 0.23 -0.02 0.26 -0.03 0.29 -0.05 0.33 -0.05 0.36 -0.06 0.38 -0.07 -0.01 0.01zm1.58 2.82l-0.01 0 -0.09 0.02 0.1 -0.02zm7.58 -3.61l0.66 2.9 0 0 -0.22 0.01 -0.22 0 -0.23 0 -0.24 0.01 -0.25 0.01 -0.25 0.01 -0.26 0.01 -0.27 0.01 -0.26 0.01 -0.28 0.02 -0.28 0.02 -0.28 0.02 -0.28 0.02 -0.29 0.02 -0.28 0.02 -0.28 0.02 -0.29 0.03 -0.28 0.02 -0.28 0.03 -0.28 0.03 -0.28 0.03 -0.27 0.03 -0.27 0.03 -0.26 0.03 -0.26 0.03 -0.26 0.04 -0.24 0.03 -0.24 0.03 -0.23 0.04 -0.22 0.03 -0.21 0.04 -0.2 0.03 -1.58 -2.82 0.24 -0.04 0.25 -0.05 0.26 -0.04 0.26 -0.04 0.27 -0.03 0.28 -0.04 0.28 -0.04 0.28 -0.03 0.3 -0.04 0.29 -0.03 0.3 -0.04 0.3 -0.03 0.3 -0.03 0.3 -0.03 0.31 -0.02 0.3 -0.03 0.31 -0.03 0.31 -0.02 0.3 -0.02 0.31 -0.03 0.31 -0.02 0.3 -0.01 0.29 -0.02 0.3 -0.02 0.3 -0.01 0.28 -0.01 0.29 -0.01 0.28 -0.01 0.27 -0.01 0.27 0 0.27 -0.01 0.25 0 0 0zm12.82 2.64l-1.2 2.61 0.02 0 -0.38 -0.12 -0.38 -0.11 -0.39 -0.12 -0.39 -0.11 -0.4 -0.12 -0.41 -0.11 -0.4 -0.11 -0.41 -0.1 -0.41 -0.11 -0.4 -0.1 -0.41 -0.1 -0.4 -0.1 -0.4 -0.09 -0.4 -0.09 -0.4 -0.09 -0.39 -0.08 -0.37 -0.08 -0.38 -0.08 -0.37 -0.07 -0.36 -0.07 -0.34 -0.06 -0.33 -0.05 -0.33 -0.06 -0.32 -0.04 -0.29 -0.05 -0.28 -0.03 -0.26 -0.03 -0.25 -0.02 -0.22 -0.02 -0.19 -0.02 -0.18 0 -0.14 -0.01 -0.66 -2.9 0.31 0.01 0.31 0.01 0.32 0.02 0.34 0.03 0.33 0.03 0.34 0.04 0.36 0.04 0.37 0.05 0.36 0.06 0.38 0.06 0.39 0.07 0.4 0.07 0.4 0.07 0.41 0.08 0.42 0.09 0.42 0.08 0.43 0.1 0.43 0.09 0.43 0.1 0.44 0.1 0.44 0.11 0.44 0.1 0.44 0.12 0.43 0.11 0.45 0.12 0.44 0.12 0.44 0.12 0.43 0.12 0.43 0.12 0.43 0.13 0.42 0.13 0.42 0.13 0.02 0.01zm-0.02 -0.01l0.02 0.01 0 0 -0.02 -0.01zm10.99 5.68l-3.42 1.22 0.04 0.04 -0.07 -0.07 -0.08 -0.08 -0.11 -0.09 -0.13 -0.11 -0.14 -0.11 -0.17 -0.12 -0.18 -0.12 -0.19 -0.13 -0.22 -0.14 -0.22 -0.14 -0.25 -0.15 -0.25 -0.14 -0.26 -0.15 -0.28 -0.15 -0.29 -0.15 -0.29 -0.16 -0.31 -0.15 -0.32 -0.15 -0.32 -0.16 -0.34 -0.15 -0.34 -0.16 -0.34 -0.15 -0.36 -0.15 -0.35 -0.15 -0.36 -0.14 -0.37 -0.15 -0.37 -0.14 -0.37 -0.14 -0.38 -0.14 -0.37 -0.13 -0.38 -0.13 -0.38 -0.12 1.2 -2.61 0.44 0.14 0.43 0.15 0.43 0.15 0.43 0.16 0.43 0.16 0.42 0.16 0.41 0.16 0.42 0.17 0.41 0.17 0.4 0.17 0.4 0.18 0.39 0.17 0.38 0.18 0.37 0.18 0.37 0.18 0.36 0.18 0.35 0.18 0.35 0.18 0.33 0.18 0.33 0.19 0.31 0.18 0.31 0.18 0.29 0.19 0.29 0.18 0.27 0.18 0.27 0.19 0.25 0.18 0.24 0.19 0.23 0.18 0.22 0.19 0.21 0.2 0.19 0.2 0.04 0.04zm-0.04 -0.04l0.01 0 0.03 0.04 -0.04 -0.04zm2.56 5.44l-4.11 -0.46 0 0 0 -0.06 -0.01 -0.06 -0.01 -0.09 -0.01 -0.08 -0.02 -0.1 -0.02 -0.1 -0.03 -0.1 -0.04 -0.12 -0.03 -0.12 -0.04 -0.11 -0.05 -0.13 -0.05 -0.13 -0.05 -0.12 -0.05 -0.13 -0.07 -0.14 -0.06 -0.14 -0.06 -0.13 -0.07 -0.13 -0.08 -0.15 -0.07 -0.13 -0.08 -0.13 -0.08 -0.14 -0.08 -0.13 -0.08 -0.13 -0.08 -0.13 -0.09 -0.12 -0.09 -0.13 -0.08 -0.11 -0.09 -0.12 -0.09 -0.11 -0.08 -0.1 -0.09 -0.1 3.42 -1.22 0.13 0.15 0.13 0.16 0.13 0.16 0.12 0.16 0.12 0.17 0.12 0.16 0.11 0.17 0.11 0.17 0.11 0.17 0.11 0.17 0.1 0.18 0.1 0.17 0.1 0.18 0.09 0.17 0.09 0.17 0.09 0.18 0.08 0.18 0.08 0.17 0.07 0.18 0.07 0.17 0.07 0.17 0.06 0.18 0.06 0.17 0.05 0.18 0.05 0.16 0.04 0.16 0.04 0.17 0.03 0.17 0.03 0.16 0.02 0.16 0.01 0.17 0 0.16 0 0zm-3.97 5.19l-3.13 -2.21 0.04 -0.02 0.15 -0.1 0.15 -0.11 0.15 -0.11 0.14 -0.11 0.15 -0.12 0.15 -0.12 0.14 -0.12 0.14 -0.12 0.14 -0.13 0.13 -0.12 0.13 -0.13 0.12 -0.13 0.12 -0.12 0.12 -0.13 0.11 -0.13 0.11 -0.13 0.1 -0.12 0.09 -0.13 0.09 -0.12 0.08 -0.12 0.08 -0.12 0.06 -0.11 0.07 -0.11 0.05 -0.1 0.05 -0.1 0.04 -0.09 0.03 -0.09 0.02 -0.08 0.02 -0.06 0.01 -0.06 0.01 -0.05 0 -0.03 4.11 0.46 0 0.2 -0.02 0.18 -0.04 0.18 -0.04 0.18 -0.06 0.17 -0.06 0.17 -0.07 0.18 -0.09 0.17 -0.08 0.17 -0.1 0.16 -0.1 0.17 -0.11 0.17 -0.11 0.17 -0.12 0.16 -0.13 0.17 -0.13 0.16 -0.14 0.17 -0.14 0.16 -0.15 0.17 -0.15 0.16 -0.16 0.16 -0.16 0.16 -0.17 0.16 -0.17 0.15 -0.17 0.16 -0.19 0.15 -0.18 0.15 -0.18 0.15 -0.2 0.14 -0.19 0.15 -0.19 0.13 -0.2 0.14 0.03 -0.03zm-3.13 -2.21l0.04 -0.02 -0.05 0.02 0.01 0zm-7.92 7l-2.2 -2.66 0.02 -0.01 0.35 -0.11 0.37 -0.12 0.36 -0.13 0.37 -0.12 0.37 -0.13 0.38 -0.14 0.37 -0.13 0.38 -0.14 0.37 -0.14 0.37 -0.14 0.38 -0.15 0.37 -0.14 0.37 -0.15 0.36 -0.15 0.35 -0.15 0.35 -0.14 0.35 -0.15 0.34 -0.15 0.33 -0.15 0.32 -0.15 0.31 -0.14 0.31 -0.15 0.29 -0.14 0.28 -0.14 0.27 -0.14 0.25 -0.13 0.24 -0.13 0.22 -0.13 0.21 -0.12 0.19 -0.12 0.17 -0.11 0.15 -0.1 3.13 2.21 -0.22 0.15 -0.23 0.15 -0.24 0.15 -0.26 0.16 -0.27 0.15 -0.28 0.15 -0.29 0.15 -0.31 0.16 -0.31 0.16 -0.32 0.15 -0.33 0.16 -0.34 0.16 -0.35 0.16 -0.35 0.16 -0.37 0.16 -0.36 0.15 -0.38 0.16 -0.38 0.16 -0.38 0.16 -0.39 0.15 -0.39 0.16 -0.39 0.15 -0.4 0.15 -0.39 0.15 -0.4 0.14 -0.4 0.15 -0.39 0.14 -0.4 0.14 -0.39 0.13 -0.39 0.13 -0.38 0.13 -0.39 0.12 0.02 -0.01zm-2.2 -2.66l0.02 -0.01 -0.03 0.01 0.01 0zm-21.11 7.32l-1.4 -2.85 -0.03 0 0.81 -0.12 0.83 -0.13 0.82 -0.13 0.84 -0.14 0.84 -0.14 0.84 -0.14 0.85 -0.14 0.84 -0.15 0.84 -0.14 0.84 -0.15 0.83 -0.15 0.82 -0.15 0.82 -0.16 0.8 -0.15 0.8 -0.15 0.78 -0.15 0.77 -0.15 0.75 -0.16 0.73 -0.15 0.71 -0.15 0.69 -0.14 0.67 -0.15 0.64 -0.14 0.62 -0.15 0.59 -0.13 0.56 -0.14 0.53 -0.13 0.49 -0.13 0.46 -0.12 0.42 -0.12 0.37 -0.12 0.34 -0.1 2.2 2.66 -0.41 0.13 -0.44 0.14 -0.47 0.13 -0.51 0.14 -0.53 0.14 -0.57 0.14 -0.59 0.14 -0.61 0.15 -0.65 0.15 -0.66 0.15 -0.69 0.15 -0.71 0.15 -0.73 0.15 -0.75 0.16 -0.77 0.15 -0.78 0.16 -0.8 0.15 -0.81 0.16 -0.82 0.15 -0.83 0.15 -0.83 0.16 -0.85 0.15 -0.85 0.15 -0.85 0.15 -0.85 0.15 -0.86 0.14 -0.85 0.15 -0.86 0.13 -0.84 0.14 -0.85 0.14 -0.83 0.13 -0.83 0.13 -0.03 0zm0.03 0l-0.03 0 0.06 -0.01 -0.03 0.01zm-43.91 2.35l-0.65 -2.9 -0.01 0 2.29 -0.01 2.17 -0.01 2.05 -0.01 1.95 -0.01 1.85 -0.02 1.75 -0.01 1.66 -0.02 1.57 -0.02 1.49 -0.03 1.43 -0.02 1.35 -0.03 1.29 -0.04 1.24 -0.04 1.19 -0.04 1.14 -0.05 1.11 -0.06 1.08 -0.06 1.05 -0.06 1.02 -0.07 1.02 -0.08 1.01 -0.09 1.01 -0.09 1.02 -0.11 1.03 -0.11 1.04 -0.11 1.07 -0.13 1.1 -0.14 1.14 -0.14 1.17 -0.16 1.23 -0.17 1.28 -0.17 1.34 -0.19 1.4 2.85 -1.34 0.19 -1.29 0.18 -1.24 0.17 -1.2 0.16 -1.15 0.14 -1.13 0.14 -1.1 0.13 -1.07 0.13 -1.07 0.11 -1.05 0.1 -1.05 0.1 -1.05 0.09 -1.05 0.08 -1.07 0.08 -1.09 0.07 -1.11 0.06 -1.15 0.06 -1.17 0.05 -1.22 0.04 -1.27 0.04 -1.31 0.04 -1.38 0.03 -1.44 0.03 -1.52 0.02 -1.58 0.02 -1.67 0.02 -1.76 0.02 -1.86 0.01 -1.95 0.01 -2.06 0.01 -2.18 0.01 -2.29 0.01 -0.01 0zm0.01 0l0 0 -0.01 0 0.01 0zm-40.28 -1.52l0.13 -2.85 -0.03 -0.01 0.88 0.11 0.88 0.1 0.87 0.09 0.88 0.09 0.88 0.09 0.9 0.08 0.9 0.08 0.91 0.07 0.93 0.07 0.94 0.07 0.97 0.06 0.99 0.06 1.02 0.05 1.04 0.06 1.08 0.04 1.11 0.05 1.14 0.04 1.18 0.03 1.23 0.04 1.27 0.03 1.31 0.03 1.36 0.02 1.42 0.03 1.46 0.02 1.53 0.01 1.58 0.02 1.64 0.01 1.71 0.01 1.77 0.01 1.84 0 1.92 0 1.98 0.01 0.65 2.9 -1.99 0 -1.92 0 -1.85 -0.01 -1.78 -0.01 -1.71 -0.01 -1.65 -0.01 -1.6 -0.01 -1.53 -0.02 -1.48 -0.02 -1.43 -0.02 -1.38 -0.03 -1.33 -0.03 -1.29 -0.03 -1.25 -0.04 -1.2 -0.03 -1.17 -0.04 -1.13 -0.05 -1.1 -0.05 -1.07 -0.05 -1.05 -0.06 -1.02 -0.06 -1 -0.06 -0.98 -0.07 -0.96 -0.07 -0.95 -0.08 -0.93 -0.08 -0.93 -0.08 -0.91 -0.09 -0.92 -0.1 -0.9 -0.1 -0.91 -0.1 -0.91 -0.11 -0.04 0zm0.04 0l-0.01 0 -0.03 0 0.04 0zm-20.59 -3.28l0.64 -2.76 -0.04 -0.01 0.41 0.08 0.43 0.09 0.46 0.09 0.48 0.09 0.51 0.1 0.53 0.09 0.56 0.1 0.57 0.1 0.59 0.11 0.61 0.1 0.62 0.1 0.64 0.11 0.65 0.11 0.66 0.1 0.68 0.11 0.68 0.11 0.69 0.11 0.69 0.11 0.7 0.1 0.71 0.11 0.7 0.11 0.71 0.1 0.7 0.11 0.71 0.1 0.7 0.1 0.69 0.1 0.69 0.1 0.68 0.1 0.68 0.09 0.66 0.09 0.65 0.09 0.64 0.09 -0.13 2.85 -0.65 -0.09 -0.66 -0.09 -0.67 -0.09 -0.69 -0.1 -0.69 -0.1 -0.69 -0.09 -0.71 -0.11 -0.71 -0.1 -0.71 -0.1 -0.71 -0.11 -0.72 -0.11 -0.71 -0.1 -0.71 -0.11 -0.71 -0.11 -0.7 -0.11 -0.7 -0.11 -0.7 -0.11 -0.67 -0.11 -0.68 -0.11 -0.66 -0.11 -0.65 -0.1 -0.64 -0.11 -0.62 -0.11 -0.61 -0.1 -0.59 -0.11 -0.57 -0.1 -0.55 -0.1 -0.53 -0.1 -0.52 -0.1 -0.48 -0.09 -0.47 -0.09 -0.44 -0.09 -0.03 -0.01zm0.03 0.01l-0.03 -0.01 0.09 0.02 -0.06 -0.01zm-14.34 -5.05l2.28 -2.14 -0.05 -0.03 0.25 0.14 0.27 0.14 0.29 0.14 0.31 0.15 0.33 0.15 0.34 0.15 0.35 0.15 0.37 0.16 0.37 0.16 0.39 0.15 0.4 0.16 0.41 0.16 0.41 0.16 0.43 0.15 0.42 0.16 0.44 0.15 0.43 0.15 0.45 0.15 0.44 0.15 0.45 0.15 0.45 0.14 0.45 0.14 0.44 0.13 0.45 0.13 0.44 0.13 0.44 0.12 0.43 0.12 0.43 0.11 0.42 0.11 0.41 0.1 0.41 0.1 0.4 0.09 -0.64 2.76 -0.46 -0.11 -0.46 -0.1 -0.46 -0.12 -0.48 -0.12 -0.47 -0.12 -0.48 -0.13 -0.48 -0.14 -0.48 -0.14 -0.49 -0.14 -0.48 -0.15 -0.49 -0.15 -0.48 -0.15 -0.49 -0.16 -0.48 -0.16 -0.48 -0.16 -0.48 -0.17 -0.47 -0.16 -0.47 -0.17 -0.46 -0.17 -0.45 -0.17 -0.45 -0.18 -0.44 -0.17 -0.44 -0.18 -0.43 -0.18 -0.41 -0.17 -0.41 -0.18 -0.39 -0.18 -0.38 -0.17 -0.37 -0.18 -0.36 -0.18 -0.35 -0.18 -0.34 -0.18 -0.05 -0.02zm0.05 0.02l-0.02 -0.01 -0.03 -0.01 0.05 0.02zm-6.33 -6.8l4.11 0.46 0 0 0.01 0.11 0.01 0.1 0.01 0.1 0.02 0.1 0.03 0.09 0.03 0.1 0.04 0.1 0.04 0.09 0.05 0.1 0.06 0.1 0.07 0.11 0.08 0.1 0.08 0.11 0.09 0.11 0.11 0.12 0.12 0.12 0.12 0.13 0.14 0.13 0.16 0.13 0.16 0.14 0.18 0.14 0.19 0.15 0.2 0.15 0.22 0.16 0.23 0.16 0.24 0.16 0.26 0.17 0.27 0.17 0.28 0.17 0.3 0.18 0.32 0.19 0.33 0.19 -2.28 2.14 -0.36 -0.21 -0.36 -0.21 -0.34 -0.21 -0.34 -0.21 -0.32 -0.2 -0.31 -0.2 -0.3 -0.21 -0.29 -0.2 -0.28 -0.2 -0.27 -0.2 -0.26 -0.2 -0.26 -0.2 -0.24 -0.21 -0.22 -0.2 -0.22 -0.2 -0.22 -0.21 -0.19 -0.21 -0.19 -0.21 -0.18 -0.21 -0.17 -0.22 -0.15 -0.22 -0.14 -0.21 -0.13 -0.22 -0.11 -0.22 -0.11 -0.23 -0.08 -0.22 -0.08 -0.22 -0.06 -0.23 -0.04 -0.22 -0.04 -0.22 -0.02 -0.23 0 -0.22 0 0zm8.18 -7.69l2.83 2.4 0.01 0 -0.52 0.29 -0.5 0.28 -0.48 0.28 -0.45 0.26 -0.43 0.26 -0.41 0.25 -0.38 0.24 -0.36 0.23 -0.34 0.22 -0.32 0.22 -0.3 0.2 -0.28 0.21 -0.25 0.19 -0.24 0.18 -0.22 0.18 -0.2 0.18 -0.18 0.16 -0.16 0.16 -0.14 0.15 -0.13 0.15 -0.11 0.14 -0.1 0.14 -0.09 0.13 -0.07 0.12 -0.06 0.12 -0.05 0.12 -0.05 0.11 -0.03 0.12 -0.02 0.11 -0.02 0.12 -0.01 0.11 -0.01 0.12 -4.11 -0.46 0 -0.23 0.03 -0.24 0.03 -0.23 0.05 -0.24 0.07 -0.23 0.08 -0.24 0.1 -0.23 0.12 -0.22 0.13 -0.23 0.15 -0.23 0.16 -0.22 0.18 -0.22 0.19 -0.22 0.21 -0.22 0.22 -0.21 0.24 -0.22 0.25 -0.22 0.27 -0.23 0.29 -0.22 0.3 -0.23 0.32 -0.23 0.34 -0.24 0.35 -0.24 0.38 -0.24 0.39 -0.25 0.41 -0.26 0.43 -0.26 0.45 -0.27 0.48 -0.28 0.49 -0.28 0.52 -0.3 0.54 -0.3 0.01 -0.01zm-0.01 0.01l0.01 -0.01 -0.06 0.04 0.05 -0.03zm19.19 -6.36l1.6 2.82 -0.01 0 -0.8 0.15 -0.78 0.14 -0.74 0.14 -0.72 0.14 -0.68 0.14 -0.67 0.14 -0.63 0.14 -0.62 0.14 -0.59 0.14 -0.58 0.14 -0.56 0.14 -0.54 0.15 -0.53 0.14 -0.51 0.16 -0.5 0.15 -0.5 0.16 -0.48 0.16 -0.48 0.18 -0.48 0.17 -0.47 0.18 -0.47 0.19 -0.48 0.2 -0.48 0.21 -0.47 0.22 -0.49 0.22 -0.5 0.24 -0.5 0.24 -0.51 0.26 -0.52 0.27 -0.54 0.28 -0.55 0.29 -0.57 0.31 -2.83 -2.4 0.59 -0.31 0.57 -0.31 0.56 -0.29 0.55 -0.29 0.54 -0.27 0.54 -0.26 0.53 -0.25 0.52 -0.25 0.53 -0.23 0.51 -0.23 0.52 -0.21 0.53 -0.21 0.52 -0.21 0.53 -0.19 0.53 -0.19 0.55 -0.19 0.54 -0.17 0.56 -0.17 0.57 -0.17 0.57 -0.16 0.59 -0.16 0.61 -0.16 0.62 -0.15 0.64 -0.15 0.65 -0.15 0.67 -0.14 0.7 -0.15 0.72 -0.14 0.74 -0.15 0.77 -0.14 0.79 -0.15 0.83 -0.15 -0.01 0zm1.6 2.82l-0.01 0 0.1 -0.01 -0.09 0.01zm9.64 -5l2.89 2.37 -0.18 0.09 -0.2 0.08 -0.18 0.06 -0.17 0.04 -0.17 0.05 -0.21 0.05 -0.21 0.05 -0.23 0.06 -0.26 0.06 -0.28 0.06 -0.29 0.06 -0.31 0.07 -0.33 0.07 -0.36 0.08 -0.37 0.07 -0.38 0.08 -0.4 0.08 -0.42 0.08 -0.43 0.09 -0.44 0.09 -0.46 0.09 -0.47 0.09 -0.48 0.09 -0.49 0.1 -0.51 0.09 -0.51 0.1 -0.52 0.1 -0.53 0.1 -0.54 0.1 -0.54 0.1 -0.55 0.1 -0.56 0.1 -0.55 0.1 -1.6 -2.82 0.55 -0.1 0.55 -0.1 0.54 -0.1 0.54 -0.1 0.53 -0.1 0.53 -0.1 0.52 -0.09 0.5 -0.1 0.5 -0.09 0.49 -0.1 0.48 -0.09 0.46 -0.09 0.45 -0.09 0.44 -0.09 0.42 -0.08 0.41 -0.08 0.39 -0.08 0.38 -0.08 0.36 -0.07 0.33 -0.07 0.32 -0.07 0.3 -0.07 0.28 -0.06 0.25 -0.05 0.23 -0.06 0.21 -0.04 0.18 -0.05 0.14 -0.03 0.12 -0.04 0.08 -0.02 0.01 0 -0.07 0.02 -0.18 0.09zm2.89 2.37l-0.09 0.05 -0.09 0.04 0.18 -0.09zm-11.59 -4.32l1.44 -2.52 0 0 0.55 0.2 0.54 0.21 0.53 0.2 0.51 0.2 0.51 0.19 0.49 0.2 0.49 0.19 0.47 0.19 0.45 0.19 0.44 0.18 0.43 0.18 0.41 0.17 0.4 0.18 0.38 0.16 0.36 0.17 0.35 0.16 0.34 0.15 0.31 0.15 0.3 0.15 0.29 0.15 0.27 0.14 0.25 0.14 0.24 0.14 0.24 0.15 0.22 0.14 0.22 0.17 0.23 0.2 0.24 0.26 0.24 0.37 0.12 0.53 -0.18 0.59 -0.49 0.44 -2.89 -2.37 -0.4 0.38 -0.16 0.5 0.1 0.41 0.15 0.26 0.11 0.12 0.05 0.04 -0.01 -0.01 -0.06 -0.04 -0.09 -0.06 -0.13 -0.07 -0.16 -0.09 -0.19 -0.1 -0.21 -0.11 -0.25 -0.12 -0.26 -0.13 -0.29 -0.13 -0.31 -0.14 -0.33 -0.15 -0.35 -0.15 -0.36 -0.16 -0.38 -0.16 -0.4 -0.17 -0.42 -0.17 -0.43 -0.18 -0.44 -0.18 -0.46 -0.18 -0.48 -0.19 -0.48 -0.19 -0.5 -0.19 -0.51 -0.19 -0.52 -0.2 -0.53 -0.2 0 0zm-10.84 -3.71l-0.65 -2.9 0 0 0.39 0.02 0.28 0.04 0.24 0.04 0.23 0.05 0.24 0.06 0.24 0.06 0.27 0.07 0.27 0.08 0.3 0.09 0.31 0.09 0.32 0.09 0.35 0.11 0.36 0.11 0.38 0.12 0.39 0.13 0.4 0.13 0.42 0.14 0.44 0.14 0.45 0.15 0.45 0.16 0.47 0.16 0.49 0.16 0.49 0.18 0.5 0.17 0.51 0.18 0.51 0.18 0.53 0.19 0.53 0.19 0.54 0.2 0.54 0.19 0.54 0.2 0.55 0.21 -1.44 2.52 -0.53 -0.2 -0.54 -0.19 -0.53 -0.19 -0.52 -0.2 -0.52 -0.18 -0.51 -0.18 -0.5 -0.18 -0.5 -0.18 -0.49 -0.17 -0.48 -0.17 -0.46 -0.15 -0.46 -0.16 -0.44 -0.15 -0.44 -0.15 -0.41 -0.13 -0.4 -0.13 -0.39 -0.13 -0.37 -0.12 -0.36 -0.11 -0.33 -0.11 -0.32 -0.09 -0.29 -0.09 -0.27 -0.08 -0.25 -0.08 -0.23 -0.06 -0.19 -0.05 -0.16 -0.04 -0.14 -0.03 -0.08 -0.02 -0.03 -0.01 0.07 0.01 0.23 0.01 0 0zm-6.78 1.04l-1.6 -2.82 0 0 0.3 -0.06 0.31 -0.05 0.3 -0.05 0.3 -0.06 0.29 -0.05 0.3 -0.05 0.3 -0.05 0.29 -0.05 0.28 -0.05 0.29 -0.05 0.28 -0.04 0.28 -0.05 0.27 -0.04 0.27 -0.04 0.26 -0.04 0.25 -0.04 0.24 -0.04 0.25 -0.03 0.24 -0.04 0.22 -0.03 0.23 -0.03 0.2 -0.03 0.2 -0.02 0.21 -0.03 0.19 -0.02 0.17 -0.02 0.18 -0.01 0.17 -0.02 0.16 -0.01 0.15 -0.01 0.17 -0.01 0.18 0 0.65 2.9 0 0 -0.04 0.01 -0.08 0 -0.09 0.01 -0.1 0.01 -0.12 0.01 -0.15 0.01 -0.16 0.02 -0.15 0.02 -0.19 0.03 -0.19 0.02 -0.2 0.03 -0.21 0.03 -0.22 0.03 -0.22 0.03 -0.23 0.03 -0.25 0.04 -0.25 0.04 -0.25 0.04 -0.26 0.04 -0.27 0.05 -0.27 0.04 -0.27 0.05 -0.29 0.04 -0.28 0.05 -0.28 0.05 -0.29 0.05 -0.29 0.05 -0.29 0.05 -0.3 0.05 -0.29 0.06 -0.3 0.05 0 0zm-20.26 2.59l4.12 0.46 -3.06 -1.59 0.61 -0.17 0.61 -0.17 0.62 -0.16 0.63 -0.17 0.63 -0.16 0.63 -0.17 0.63 -0.16 0.64 -0.17 0.63 -0.16 0.63 -0.16 0.63 -0.16 0.63 -0.16 0.62 -0.15 0.61 -0.16 0.61 -0.15 0.6 -0.14 0.59 -0.14 0.58 -0.14 0.57 -0.14 0.56 -0.13 0.54 -0.13 0.53 -0.12 0.51 -0.12 0.5 -0.11 0.48 -0.11 0.46 -0.1 0.44 -0.09 0.42 -0.09 0.4 -0.08 0.37 -0.08 0.36 -0.07 0.33 -0.06 1.6 2.82 -0.29 0.05 -0.32 0.07 -0.36 0.07 -0.37 0.07 -0.4 0.09 -0.43 0.09 -0.44 0.1 -0.46 0.1 -0.48 0.11 -0.5 0.11 -0.52 0.12 -0.53 0.13 -0.55 0.13 -0.56 0.13 -0.57 0.14 -0.59 0.14 -0.59 0.15 -0.6 0.14 -0.61 0.15 -0.61 0.16 -0.62 0.15 -0.62 0.16 -0.63 0.16 -0.62 0.16 -0.63 0.16 -0.63 0.17 -0.62 0.16 -0.62 0.16 -0.62 0.17 -0.61 0.16 -0.61 0.16 -0.59 0.17 -3.06 -1.6zm3.06 1.6l-3.06 0.83 0 -2.43 3.06 1.6zm1.06 -1.14l0 0 -4.12 -0.46 0 0 1.05 -1.13 3.07 1.59zm-3.07 -1.59l3.07 -0.86 0 2.45 -3.07 -1.59z"/>
   </g>
  </g>
 </g>
</svg>
