<?xml version="1.0"?>
<svg width="280" height="277" xmlns="http://www.w3.org/2000/svg" xmlns:svg="http://www.w3.org/2000/svg" version="1.1">
 <title>ieee-logo</title>
 <g class="layer">
  <title>Layer 1</title>
  <g fill="#007396" fill-rule="none" font-family="none" font-size="none" font-weight="none" id="Background" stroke-dashoffset="0" stroke-miterlimit="10" text-anchor="none">
   <g data-paper-data="{&quot;isGlobalGroup&quot;:true,&quot;bounds&quot;:{&quot;x&quot;:145.9865050217383,&quot;y&quot;:106,&quot;width&quot;:258.0269899565233,&quot;height&quot;:258}}" id="svg_2">
    <g data-paper-data="{&quot;fillRule&quot;:&quot;nonzero&quot;,&quot;fillRuleOriginal&quot;:&quot;evenodd&quot;,&quot;isIcon&quot;:true,&quot;iconStyle&quot;:&quot;standalone&quot;,&quot;selectedEffects&quot;:{&quot;container&quot;:&quot;square_simple_filledplus_rounded_rotated&quot;,&quot;transformation&quot;:&quot;rotate0;translate50&quot;,&quot;pattern&quot;:&quot;&quot;},&quot;bounds&quot;:{&quot;x&quot;:199.2577999764242,&quot;y&quot;:159.2582330096037,&quot;width&quot;:151.48413951867812,&quot;height&quot;:151.4841319444713},&quot;widthRatioIconToContainer&quot;:0.42464629212404503,&quot;heightRatioIconToContainer&quot;:0.5151518117168207,&quot;relativeBoundsIconToContainer&quot;:{&quot;top&quot;:-0.046622713839394765,&quot;left&quot;:-0.00418340592917148},&quot;iconType&quot;:&quot;icon&quot;,&quot;rawIconId&quot;:&quot;0986e680-966b-4abb-a07d-79a8c8aaf2b7&quot;,&quot;isSvgStockIcon&quot;:true,&quot;combineTerms&quot;:&quot;animal,lion&quot;,&quot;combineTermsExtended&quot;:{&quot;icon&quot;:[&quot;animal&quot;,&quot;lion&quot;]},&quot;isDetailed&quot;:false,&quot;suitableAsStandaloneIcon&quot;:true}" fill-rule="nonzero" id="svg_3">
     <path d="m70.28,145.31c-3.84,-3.76 -3.84,-9.85 0,-13.61l62.35,-61.07c3.84,-3.76 10.06,-3.76 13.9,0l62.35,61.07c3.84,3.76 3.84,9.85 0,13.61l-62.35,61.07c-3.84,3.76 -10.06,3.76 -13.9,0l-62.35,-61.07zm46.1,-9.04c2.27,-2.53 3.92,-5.43 5.75,-8.38c0,0.77 0,1.53 -0.01,2.3c-0.01,1.53 -0.02,3.08 0.01,4.62c0.1,3.08 -0.55,6.01 -1.22,9c-0.58,2.54 -1.92,4.82 -3,6.93c-0.15,0.29 -0.29,0.62 -0.44,0.98c-0.85,1.94 -1.98,4.54 -5.33,3.83c-0.15,-0.03 -0.5,0.17 -0.5,0.27c-0.05,2.92 -4.1,2.28 -4.49,4.87c-2.81,0.5 -2.73,2.56 -2.65,4.66c0,0.11 0.01,0.2 0.01,0.3c0.06,1.21 0.13,2.43 -0.03,3.61c-0.31,2.24 0.57,2.8 2.81,2.79c11.2,-0.07 22.38,-0.06 33.58,-0.05c4,0 8,0.01 11.99,0.01c2.13,0 4.26,-0.01 6.38,-0.01c4.25,0 8.49,-0.01 12.75,0.01c1.28,0 1.81,-0.19 1.09,-1.59c-0.89,-1.75 -1.68,-3.49 -3.24,-4.85c-0.98,-0.86 -1.51,-2.11 -1.95,-3.48c-0.64,-1.97 -1.49,-3.91 -3.59,-5.26c-1.46,-0.95 -2.67,-2.69 -2.58,-4.97c0.02,-0.57 0.06,-1.14 0.12,-1.71c0.23,-2.87 0.46,-5.8 -2.23,-8.08c-0.17,-0.14 -0.17,-0.55 -0.14,-0.82c0.24,-2.1 -0.95,-3.16 -2.81,-3.84c-1.76,-0.65 -2.7,-3.95 -1.55,-5.42c3.37,-4.3 5.07,-9.41 6.98,-14.36c0.8,-2.09 1.48,-4.54 0.59,-6.99c-0.34,-0.96 -0.24,-2.07 -0.34,-3.17c1.47,0.32 2.73,0.57 3.61,-0.91c2.02,-3.4 1.8,-4.49 -1.13,-7.14c-1.57,-1.43 -3.18,-2.75 -3.6,-5.18c-0.26,-1.42 -1.18,-3.25 -2.98,-3.74c-2.6,-0.72 -5.63,-0.57 -7.45,0.96c-2.6,2.14 -6.19,3.04 -8.05,6.03c-0.93,1.5 -2.09,2.93 -3.16,4.23c-1.9,2.33 -2.11,5.04 -3.17,7.54c-0.19,0.47 -0.15,0.99 -0.11,1.5c0.08,0.87 0.15,1.74 -0.99,2.38c-2.5,1.38 -4.74,3.29 -7.32,4.45c-4.03,1.81 -6.29,4.78 -7.65,8.78c-1.3,3.88 -3.02,7.57 -5.89,10.63c-1.31,1.39 -2.67,2.16 -4.69,1.03c-0.95,-0.54 -2.24,-0.55 -3.46,-0.82c0.94,2.25 2.32,3.03 4.49,2.68c2.43,-0.4 4.09,-1.94 5.62,-3.66zm26.09,-0.06c-0.03,0.01 -0.05,0.01 -0.09,0.01c0,0.17 0.01,0.34 0.02,0.49c0.02,0.35 0.04,0.69 -0.03,1.03c-0.11,0.45 0.1,1 0.29,1.49c0.24,0.64 0.45,1.2 -0.1,1.34c-0.25,0.06 -0.5,0.15 -0.77,0.23c-1.3,0.44 -2.83,0.96 -3.98,-0.71c-0.16,-0.23 -0.69,-0.22 -1.02,-0.35c-2.5,-0.99 -2.9,-2.18 -1.55,-4.49c0.78,-1.34 2.17,-2.31 2.21,-4.13c0.02,-0.86 1.28,-0.95 2.03,-0.82c1.17,0.2 2.33,0.7 2.57,2.02c0.25,1.28 0.29,2.59 0.42,3.88zm-17.64,7.02c-0.08,-0.87 -0.1,-1.73 -0.16,-2.84c0.26,-2.8 0.38,-5.81 2.85,-8.19c0.97,-0.93 1.92,-1.45 3.03,-0.89c1.14,0.56 1.57,1.91 1.28,2.98c-0.6,2.18 -0.27,4.17 0.74,6.08c0.44,0.83 0.13,1 -0.53,1.37c-0.02,0.01 -0.04,0.03 -0.08,0.04c-1.91,1.05 -4.3,0.65 -6.09,2.05c-0.56,0.42 -1,0.04 -1.05,-0.6zm25.34,-9.08c0.86,1.73 0.91,3.75 2.32,5.5c-4.51,0.57 -6.53,-1.37 -5.67,-5.17c0.03,-0.14 0.05,-0.3 0.06,-0.47c0.05,-0.56 0.12,-1.19 0.68,-1.07c0.88,0.17 2.04,0.01 2.62,1.21zm70.61,5.12l-0.04,0.78c0,0.02 -0.01,0.05 -0.01,0.07l-0.08,0.78c0,0.03 -0.01,0.05 -0.01,0.08l-0.12,0.77c0,0.03 -0.01,0.06 -0.01,0.08l-0.15,0.77c-0.01,0.03 -0.01,0.06 -0.02,0.08l-0.18,0.76c-0.01,0.03 -0.02,0.06 -0.03,0.09l-0.23,0.75c-0.01,0.02 -0.01,0.05 -0.02,0.08l-0.27,0.74c-0.01,0.03 -0.02,0.05 -0.03,0.08l-0.3,0.72c-0.01,0.02 -0.02,0.05 -0.04,0.08l-0.33,0.7c-0.01,0.03 -0.03,0.05 -0.04,0.08l-0.38,0.68c-0.01,0.03 -0.03,0.05 -0.04,0.08l-0.41,0.66c-0.02,0.03 -0.03,0.05 -0.05,0.07l-0.44,0.65c-0.01,0.02 -0.03,0.05 -0.05,0.07l-0.46,0.62c-0.02,0.03 -0.04,0.05 -0.05,0.07l-0.5,0.6c-0.01,0.02 -0.03,0.04 -0.05,0.06l-0.53,0.59c-0.01,0.02 -0.03,0.03 -0.05,0.05l-0.55,0.57l-0.68,0.65l-0.56,0.56l-10.09,9.88l-4.49,4.39l-0.56,0.56l-0.57,0.55l-0.56,0.55l-0.56,0.56l-0.56,0.55l-0.57,0.55l-0.56,0.56l-0.56,0.55l-2.81,2.74l-5.61,5.49l-0.56,0.56l-20.19,19.78l-2.24,2.2l-0.56,0.55l-0.57,0.55l-0.56,0.56l-6.17,6.04l-2.81,2.74l-0.5,0.48c-0.01,0.01 -0.03,0.03 -0.05,0.04l-0.59,0.53c-0.02,0.01 -0.04,0.03 -0.06,0.05l-0.61,0.49c-0.02,0.01 -0.04,0.03 -0.06,0.05l-0.63,0.46c-0.03,0.01 -0.05,0.03 -0.08,0.05l-0.65,0.43c-0.03,0.02 -0.05,0.03 -0.09,0.05l-0.68,0.4c-0.02,0.02 -0.05,0.03 -0.08,0.05l-0.7,0.37c-0.03,0.01 -0.06,0.03 -0.09,0.04l-0.72,0.34c-0.03,0.01 -0.05,0.02 -0.09,0.04l-0.73,0.29c-0.03,0.01 -0.06,0.02 -0.1,0.03l-0.74,0.26c-0.03,0.01 -0.06,0.02 -0.1,0.03l-0.76,0.23c-0.02,0.01 -0.05,0.01 -0.09,0.02l-0.77,0.19c-0.02,0.01 -0.05,0.02 -0.09,0.02l-0.78,0.16c-0.02,0 -0.05,0.01 -0.09,0.01l-0.78,0.12c-0.03,0.01 -0.05,0.01 -0.09,0.01l-0.78,0.08c-0.03,0 -0.06,0.01 -0.09,0.01l-0.79,0.04c-0.03,0.01 -0.05,0.01 -0.08,0.01l-0.79,0.01c-0.03,0 -0.05,0 -0.08,0l-0.66,-0.01c-0.02,0 -0.05,0 -0.08,0l-0.79,-0.04c-0.02,0 -0.05,-0.01 -0.08,-0.01l-0.79,-0.07c-0.03,0 -0.05,-0.01 -0.09,-0.01l-0.78,-0.12c-0.03,0 -0.06,0 -0.09,-0.01l-0.78,-0.15c-0.03,-0.01 -0.06,-0.01 -0.09,-0.02l-0.77,-0.18c-0.03,-0.01 -0.06,-0.02 -0.1,-0.03l-0.76,-0.22c-0.02,0 -0.05,-0.01 -0.09,-0.02l-0.75,-0.26c-0.03,-0.01 -0.05,-0.02 -0.09,-0.03l-0.74,-0.29c-0.02,-0.01 -0.05,-0.02 -0.09,-0.04l-0.72,-0.33c-0.02,-0.01 -0.05,-0.03 -0.09,-0.04l-0.7,-0.37c-0.03,-0.01 -0.05,-0.03 -0.09,-0.04l-0.68,-0.4c-0.03,-0.02 -0.05,-0.03 -0.08,-0.05l-0.66,-0.43c-0.02,-0.01 -0.05,-0.03 -0.08,-0.05l-0.63,-0.45c-0.03,-0.02 -0.05,-0.04 -0.08,-0.05l-0.61,-0.49c-0.02,-0.01 -0.04,-0.03 -0.06,-0.05l-0.6,-0.51c-0.02,-0.01 -0.03,-0.03 -0.05,-0.05l-0.58,-0.54l-0.11,-0.11l-3.37,-3.3l-0.56,-0.56l-3.92,-3.84l-2.81,-2.74l-5.04,-4.95l-1.13,-1.09l-0.56,-0.56l-3.37,-3.3l-4.49,-4.39l-0.56,-0.55l-0.56,-0.56l-0.56,-0.55l-0.57,-0.55l-1.68,-1.65l-1.12,-1.1l-0.57,-0.55l-2.8,-2.74l-2.81,-2.75l-3.92,-3.84l-1.12,-1.1l-0.57,-0.55l-5.04,-4.95l-0.57,-0.55l-0.56,-0.55l-0.56,-0.56l-3.92,-3.84l-2.25,-2.2l-0.56,-0.55l-1.68,-1.65l-5.04,-4.95l-0.49,-0.49c-0.01,-0.01 -0.03,-0.03 -0.04,-0.05l-0.54,-0.58c-0.01,-0.02 -0.03,-0.04 -0.05,-0.06l-0.5,-0.6c-0.01,-0.02 -0.03,-0.04 -0.05,-0.06l-0.47,-0.62c-0.01,-0.03 -0.03,-0.05 -0.05,-0.07l-0.44,-0.64c-0.02,-0.03 -0.03,-0.05 -0.05,-0.08l-0.41,-0.66c-0.02,-0.02 -0.03,-0.05 -0.04,-0.07l-0.39,-0.68c-0.01,-0.03 -0.03,-0.06 -0.04,-0.08l-0.34,-0.7c-0.01,-0.03 -0.02,-0.05 -0.03,-0.08l-0.31,-0.71c-0.01,-0.03 -0.02,-0.06 -0.03,-0.09l-0.27,-0.72c-0.01,-0.03 -0.02,-0.06 -0.03,-0.09l-0.24,-0.74c-0.01,-0.03 -0.01,-0.06 -0.02,-0.09l-0.19,-0.76c-0.01,-0.02 -0.02,-0.05 -0.02,-0.08l-0.16,-0.77c0,-0.02 -0.01,-0.05 -0.01,-0.08l-0.12,-0.77c-0.01,-0.03 -0.01,-0.05 -0.01,-0.08l-0.09,-0.77c0,-0.03 -0.01,-0.06 -0.01,-0.08l-0.04,-0.78c-0.01,-0.02 -0.01,-0.05 -0.01,-0.07l-0.01,-0.78c0,-0.03 0,-0.05 0,-0.07l0.01,-0.65c0,-0.02 0,-0.05 0,-0.07l0.04,-0.78c0,-0.02 0.01,-0.05 0.01,-0.07l0.08,-0.78c0,-0.03 0.01,-0.05 0.01,-0.08l0.12,-0.77c0,-0.03 0.01,-0.06 0.01,-0.08l0.15,-0.77c0.01,-0.03 0.01,-0.06 0.02,-0.08l0.18,-0.76c0.01,-0.03 0.02,-0.06 0.03,-0.09l0.23,-0.75c0.01,-0.02 0.01,-0.05 0.02,-0.08l0.27,-0.74c0.01,-0.03 0.02,-0.05 0.03,-0.08l0.3,-0.72c0.01,-0.02 0.02,-0.05 0.04,-0.08l0.33,-0.7c0.01,-0.02 0.03,-0.05 0.04,-0.08l0.38,-0.68c0.01,-0.03 0.03,-0.05 0.04,-0.08l0.41,-0.66c0.02,-0.03 0.03,-0.05 0.05,-0.07l0.44,-0.65c0.01,-0.02 0.03,-0.05 0.05,-0.07l0.46,-0.62c0.02,-0.03 0.04,-0.05 0.05,-0.07l0.5,-0.6c0.01,-0.02 0.03,-0.04 0.05,-0.06l0.53,-0.59c0.01,-0.02 0.03,-0.03 0.05,-0.05l0.55,-0.57l0.11,-0.11l1.13,-1.1l4.48,-4.39l2.81,-2.75l0.56,-0.55l6.73,-6.59l1.68,-1.65l2.24,-2.21l5.61,-5.49l0.56,-0.55l2.25,-2.2l2.8,-2.75l0.56,-0.55l3.37,-3.3l5.05,-4.94l0.56,-0.56l0.56,-0.55l2.81,-2.74l1.13,-1.1l1.67,-1.65l7.86,-7.69l1.12,-1.1l5.05,-4.95l1.68,-1.64l0.5,-0.48c0.01,-0.01 0.03,-0.03 0.05,-0.04l0.59,-0.53c0.02,-0.01 0.04,-0.03 0.06,-0.05l0.61,-0.49c0.02,-0.01 0.04,-0.03 0.06,-0.04l0.63,-0.47c0.03,-0.01 0.05,-0.03 0.08,-0.05l0.65,-0.43c0.03,-0.02 0.05,-0.03 0.09,-0.05l0.68,-0.4c0.02,-0.02 0.05,-0.03 0.08,-0.04l0.7,-0.38c0.03,-0.01 0.06,-0.03 0.09,-0.04l0.72,-0.34c0.03,-0.01 0.05,-0.02 0.09,-0.03l0.73,-0.3c0.03,-0.01 0.06,-0.02 0.1,-0.03l0.74,-0.26c0.03,-0.01 0.06,-0.02 0.1,-0.03l0.76,-0.23c0.02,-0.01 0.05,-0.01 0.09,-0.02l0.77,-0.19c0.02,-0.01 0.05,-0.02 0.09,-0.02l0.78,-0.16c0.02,0 0.05,-0.01 0.09,-0.01l0.78,-0.12c0.03,-0.01 0.05,-0.01 0.09,-0.01l0.78,-0.08c0.03,0 0.06,-0.01 0.09,-0.01l0.79,-0.04c0.03,0 0.05,-0.01 0.08,-0.01l0.79,-0.01c0.03,0 0.05,0 0.08,0l0.66,0.01c0.02,0 0.05,0 0.08,0l0.79,0.04c0.02,0 0.05,0.01 0.08,0.01l0.79,0.07c0.03,0 0.05,0.01 0.09,0.01l0.78,0.12c0.03,0 0.06,0.01 0.09,0.01l0.78,0.15c0.03,0.01 0.06,0.01 0.09,0.02l0.77,0.18c0.03,0.01 0.06,0.02 0.1,0.03l0.76,0.22c0.02,0.01 0.05,0.01 0.09,0.02l0.75,0.26c0.03,0.01 0.05,0.02 0.09,0.03l0.74,0.29c0.02,0.01 0.05,0.03 0.09,0.04l0.72,0.33c0.02,0.01 0.05,0.03 0.09,0.04l0.7,0.37c0.03,0.01 0.05,0.03 0.09,0.04l0.68,0.4c0.03,0.02 0.05,0.03 0.08,0.05l0.66,0.43c0.02,0.01 0.05,0.03 0.08,0.05l0.63,0.45c0.03,0.02 0.05,0.04 0.08,0.05l0.61,0.49c0.02,0.01 0.04,0.03 0.06,0.05l0.6,0.51c0.02,0.01 0.03,0.03 0.05,0.05l0.58,0.54l1.23,1.21l1.68,1.65l5.04,4.95l0.57,0.55l1.67,1.65l2.81,2.74l0.56,0.56l1.68,1.65l1.68,1.65l0.56,0.55l0.57,0.55l2.8,2.75l0.56,0.55l0.57,0.55l1.12,1.1l5.05,4.95l0.56,0.55l5.05,4.95l5.05,4.94l0.56,0.56l0.56,0.55l0.57,0.55l1.12,1.1l5.05,4.94l2.81,2.75l0.56,0.55l2.24,2.2l1.13,1.1l5.61,5.49l3.36,3.3l0.49,0.49c0.01,0.01 0.03,0.03 0.04,0.05l0.54,0.58c0.01,0.02 0.03,0.04 0.05,0.06l0.5,0.6c0.01,0.02 0.03,0.04 0.05,0.06l0.47,0.62c0.01,0.03 0.03,0.05 0.05,0.07l0.44,0.64c0.02,0.03 0.03,0.05 0.05,0.08l0.41,0.66c0.02,0.02 0.03,0.05 0.04,0.07l0.39,0.68c0.01,0.03 0.03,0.06 0.04,0.08l0.34,0.7c0.01,0.03 0.02,0.05 0.03,0.08l0.31,0.71c0.01,0.03 0.02,0.06 0.03,0.09l0.27,0.72c0.01,0.03 0.02,0.06 0.03,0.09l0.24,0.75c0.01,0.02 0.01,0.05 0.02,0.08l0.19,0.76c0.01,0.03 0.02,0.05 0.02,0.08l0.16,0.77c0,0.02 0.01,0.05 0.01,0.08l0.12,0.77c0.01,0.03 0.01,0.05 0.01,0.08l0.09,0.77c0,0.03 0.01,0.06 0.01,0.08l0.04,0.78c0.01,0.03 0.01,0.05 0.01,0.07l0.01,0.78c0,0.03 0,0.05 0,0.07l-0.01,0.65c0,0.02 0,0.05 0,0.07zm-3.82,-1.46l-0.04,-0.69l-0.08,-0.68l-0.11,-0.68l-0.13,-0.68l-0.17,-0.66l-0.2,-0.65l-0.24,-0.64l-0.28,-0.63l-0.3,-0.62l-0.33,-0.6l-0.36,-0.59l-0.39,-0.57l-0.43,-0.56l-0.45,-0.54l-0.47,-0.53l-0.42,-0.42l-3.37,-3.3l-5.61,-5.49l-0.56,-0.55l-0.56,-0.55l-2.24,-2.2l-0.57,-0.56l-2.8,-2.74l-5.05,-4.95l-1.13,-1.1l-0.56,-0.55l-0.56,-0.55l-0.56,-0.55l-5.05,-4.95l-5.05,-4.95l-0.56,-0.55l-5.05,-4.95l-1.13,-1.09l-1.12,-1.1l-2.81,-2.75l-1.12,-1.09l-1.13,-1.1l-0.56,-0.55l-1.68,-1.65l-0.56,-0.55l-2.25,-2.21l-2.24,-2.2l-0.56,-0.55l-5.05,-4.95l-1.68,-1.65l-1.18,-1.16l-0.54,-0.5l-0.54,-0.46l-0.55,-0.44l-0.57,-0.41l-0.59,-0.38l-0.6,-0.35l-0.61,-0.33l-0.63,-0.29l-0.64,-0.25l-0.66,-0.23l-0.66,-0.19l-0.69,-0.17l-0.69,-0.13l-0.7,-0.11l-0.71,-0.06l-0.71,-0.04l-0.6,-0.01l-0.72,0.02l-0.71,0.04l-0.71,0.07l-0.7,0.11l-0.69,0.13l-0.68,0.17l-0.66,0.2l-0.65,0.23l-0.64,0.27l-0.63,0.29l-0.61,0.33l-0.6,0.36l-0.58,0.38l-0.57,0.42l-0.55,0.44l-0.54,0.46l-0.43,0.41l-1.68,1.65l-5.04,4.94l-1.13,1.1l-7.85,7.69l-1.68,1.65l-1.13,1.1l-2.8,2.74l-0.57,0.56l-0.56,0.55l-5.05,4.95l-3.36,3.29l-0.57,0.56l-2.8,2.74l-2.24,2.2l-0.57,0.56l-5.61,5.49l-2.24,2.2l-1.68,1.65l-6.72,6.59l-0.57,0.56l-2.8,2.74l-4.49,4.4l-1.12,1.09l-0.06,0.06l-0.51,0.53l-0.47,0.53l-0.45,0.54l-0.42,0.56l-0.39,0.58l-0.35,0.59l-0.33,0.6l-0.3,0.62l-0.26,0.63l-0.24,0.65l-0.19,0.65l-0.17,0.67l-0.13,0.67l-0.11,0.68l-0.06,0.69l-0.04,0.69l-0.01,0.59l0.02,0.7l0.04,0.69l0.08,0.69l0.11,0.68l0.13,0.67l0.17,0.66l0.2,0.65l0.24,0.64l0.28,0.63l0.3,0.62l0.33,0.6l0.36,0.59l0.39,0.57l0.43,0.56l0.45,0.54l0.47,0.53l0.42,0.42l5.05,4.95l1.67,1.65l0.57,0.55l2.24,2.2l3.92,3.84l0.56,0.55l0.57,0.56l0.56,0.55l5.05,4.95l1.68,1.65l3.92,3.84l2.8,2.74l2.81,2.75l0.56,0.55l1.13,1.1l1.67,1.65l0.57,0.55l0.56,0.55l0.56,0.55l0.57,0.56l4.48,4.39l3.37,3.3l0.56,0.55l1.13,1.1l5.05,4.95l2.8,2.74l3.92,3.84l0.56,0.56l3.37,3.29l0.06,0.06l0.54,0.5l0.54,0.46l0.55,0.44l0.57,0.41l0.59,0.38l0.6,0.36l0.61,0.32l0.63,0.29l0.64,0.25l0.66,0.23l0.66,0.19l0.69,0.17l0.69,0.13l0.7,0.11l0.71,0.06l0.71,0.04l0.6,0.01l0.72,-0.02l0.71,-0.04l0.7,-0.07l0.7,-0.11l0.7,-0.13l0.68,-0.17l0.66,-0.2l0.65,-0.23l0.64,-0.27l0.63,-0.29l0.61,-0.33l0.6,-0.36l0.58,-0.38l0.57,-0.42l0.55,-0.44l0.54,-0.46l0.43,-0.41l8.41,-8.24l0.57,-0.56l0.56,-0.55l0.56,-0.55l0.57,-0.55l2.24,-2.21l20.19,-19.78l0.56,-0.55l5.61,-5.49l3.37,-3.3l0.56,-0.55l0.56,-0.55l0.57,-0.56l0.56,-0.55l0.56,-0.55l0.57,-0.55l0.56,-0.56l4.48,-4.39l3.37,-3.3l0.56,-0.55l6.18,-6.05l0.56,-0.55l0.62,-0.61l0.51,-0.53l0.47,-0.53l0.45,-0.54l0.42,-0.56l0.39,-0.58l0.35,-0.59l0.33,-0.6l0.3,-0.62l0.26,-0.63l0.24,-0.65l0.19,-0.65l0.17,-0.67l0.13,-0.67l0.11,-0.68l0.06,-0.69l0.04,-0.69l0.01,-0.59l-0.02,-0.7z" data-paper-data="{&quot;isPathIcon&quot;:true}" id="svg_4"/>
    </g>
    <g data-paper-data="{&quot;isSecondaryText&quot;:true}" fill-rule="nonzero" id="svg_5">
     <path d="m70.11,219.04l-1.37,-1.16l-5.67,6.47l1.37,1.16l5.67,-6.47z" data-paper-data="{&quot;glyphName&quot;:&quot;I&quot;,&quot;glyphIndex&quot;:0,&quot;firstGlyphOfWord&quot;:true,&quot;word&quot;:1}" id="svg_6"/>
     <path d="m71.15,230.68l1,-1.27l-2.86,-2.14l1.33,-1.69l2.6,1.95l1,-1.28l-2.61,-1.94l0.99,-1.27l2.24,1.68l1,-1.27l-3.68,-2.76l-5.3,6.79l4.3,3.21z" data-paper-data="{&quot;glyphName&quot;:&quot;E&quot;,&quot;glyphIndex&quot;:1,&quot;word&quot;:1}" id="svg_7"/>
     <path d="m77.97,235.2l0.9,-1.34l-3,-1.93l1.2,-1.78l2.73,1.76l0.9,-1.34l-2.73,-1.76l0.89,-1.33l2.36,1.52l0.89,-1.34l-3.86,-2.49l-4.79,7.13l4.51,2.91z" data-paper-data="{&quot;glyphName&quot;:&quot;E&quot;,&quot;glyphIndex&quot;:2,&quot;word&quot;:1}" id="svg_8"/>
     <path d="m85.1,239.22l0.8,-1.4l-3.13,-1.71l1.06,-1.86l2.85,1.57l0.8,-1.4l-2.85,-1.58l0.79,-1.39l2.46,1.36l0.8,-1.41l-4.04,-2.22l-4.26,7.45l4.71,2.58z" data-paper-data="{&quot;glyphName&quot;:&quot;E&quot;,&quot;glyphIndex&quot;:3,&quot;lastGlyphOfWord&quot;:true,&quot;word&quot;:1}" id="svg_9"/>
     <path d="m96.8,240.4c0.75,0.39 1.02,0.96 0.75,1.6c-0.21,0.5 -0.83,0.77 -1.38,0.55c-0.47,-0.19 -0.8,-0.45 -0.99,-1.06l-1.8,0.44c0.43,1.13 1.21,1.84 2.13,2.21c1.42,0.57 3.18,-0.02 3.83,-1.55c0.63,-1.52 -0.12,-2.9 -1.46,-3.53c-0.84,-0.4 -0.97,-0.83 -0.81,-1.19c0.17,-0.44 0.59,-0.59 1.03,-0.41c0.29,0.12 0.57,0.43 0.7,0.74l1.72,-0.41c-0.32,-0.98 -0.95,-1.58 -1.76,-1.89c-1.12,-0.45 -2.76,-0.01 -3.31,1.33c-0.53,1.24 0.03,2.46 1.36,3.18z" data-paper-data="{&quot;glyphName&quot;:&quot;S&quot;,&quot;glyphIndex&quot;:4,&quot;firstGlyphOfWord&quot;:true,&quot;word&quot;:2}" id="svg_10"/>
     <path d="m103.46,246.82l2.24,-6.58l2.18,0.71l0.51,-1.52l-5.93,-1.94l-0.51,1.52l2.04,0.67l-2.24,6.56l1.72,0.57z" data-paper-data="{&quot;glyphName&quot;:&quot;T&quot;,&quot;glyphIndex&quot;:5,&quot;word&quot;:2}" id="svg_11"/>
     <path d="m111.71,249.25c2.26,0.55 3.99,-0.55 4.6,-2.96l1.15,-4.59l-1.76,-0.43l-1.19,4.74c-0.31,1.25 -1.08,1.9 -2.38,1.59c-1.25,-0.29 -1.72,-1.19 -1.39,-2.49l1.19,-4.74l-1.76,-0.43l-1.12,4.45c-0.58,2.3 0.18,4.26 2.66,4.86z" data-paper-data="{&quot;glyphName&quot;:&quot;U&quot;,&quot;glyphIndex&quot;:6,&quot;word&quot;:2}" id="svg_12"/>
     <path d="m119.81,242.15l-1.28,8.45l3.51,0.5c2.48,0.36 4.77,-1.14 5.14,-3.57c0.36,-2.41 -1.38,-4.52 -3.87,-4.87l-3.5,-0.5zm0.76,7.11l0.79,-5.26l1.71,0.24c1.5,0.22 2.5,1.49 2.27,3.01c-0.23,1.52 -1.57,2.48 -3.06,2.26l-1.72,-0.25z" data-paper-data="{&quot;glyphName&quot;:&quot;D&quot;,&quot;glyphIndex&quot;:7,&quot;word&quot;:2}" id="svg_13"/>
     <path d="m134.8,252.37l0.11,-1.6l-3.58,-0.23l0.14,-2.12l3.27,0.2l0.1,-1.6l-3.26,-0.21l0.1,-1.59l2.82,0.18l0.1,-1.6l-4.62,-0.29l-0.56,8.52l5.39,0.34z" data-paper-data="{&quot;glyphName&quot;:&quot;E&quot;,&quot;glyphIndex&quot;:8,&quot;word&quot;:2}" id="svg_14"/>
     <path d="m143.82,248.75l-6.29,-4.99l0.16,8.7l1.81,-0.03l-0.1,-4.91l6.29,4.94l-0.16,-8.68l-1.81,0.03l0.1,4.94z" data-paper-data="{&quot;glyphName&quot;:&quot;N&quot;,&quot;glyphIndex&quot;:9,&quot;word&quot;:2}" id="svg_15"/>
     <path d="m152.27,251.75l-0.72,-6.89l2.28,-0.23l-0.16,-1.6l-6.23,0.62l0.17,1.6l2.13,-0.21l0.72,6.89l1.8,-0.18z" data-paper-data="{&quot;glyphName&quot;:&quot;T&quot;,&quot;glyphIndex&quot;:10,&quot;lastGlyphOfWord&quot;:true,&quot;word&quot;:2}" id="svg_16"/>
     <path d="m166.38,249.38c1.55,-0.37 2.77,-1.68 2.36,-3.37c-0.19,-0.81 -0.75,-1.43 -1.64,-1.76c0.32,-0.46 0.41,-0.97 0.27,-1.54c-0.38,-1.55 -1.66,-1.93 -3.23,-1.58l-2.72,0.63l2.01,8.31l2.96,-0.68zm-1.58,-1.29l-0.51,-2.13l1.25,-0.29c0.73,-0.17 1.23,0.15 1.39,0.82c0.16,0.65 -0.15,1.16 -0.88,1.32l-1.25,0.28zm-0.88,-3.64l-0.38,-1.53l0.89,-0.21c0.49,-0.11 0.99,-0.08 1.15,0.55c0.09,0.35 0.09,0.8 -0.77,1l-0.89,0.2z" data-paper-data="{&quot;glyphName&quot;:&quot;B&quot;,&quot;glyphIndex&quot;:11,&quot;firstGlyphOfWord&quot;:true,&quot;word&quot;:3}" id="svg_17"/>
     <path d="m174.28,245.7l1.81,0.98l2.29,-0.72l-2.4,-1.3c0.98,-0.89 1.34,-2.18 0.86,-3.64c-0.58,-1.78 -2.54,-2.73 -4.49,-2.11l-2.87,0.9l2.67,8.13l1.73,-0.55l-0.46,-1.41l0.87,-0.27zm-1.37,-1.25l-1.21,-3.67l1.05,-0.33c1.2,-0.39 2.08,0.23 2.4,1.22c0.38,1.13 -0.08,2.09 -1.3,2.47l-0.94,0.3z" data-paper-data="{&quot;glyphName&quot;:&quot;R&quot;,&quot;glyphIndex&quot;:12,&quot;word&quot;:3}" id="svg_18"/>
     <path d="m186.81,242.61l1.82,-0.75l-7.67,-6.28l-0.83,9.75l1.73,-0.7l0.06,-1.27l3.9,-1.6l0.98,0.85zm-4.62,-3.97l2.28,1.94l-2.44,1l0.16,-2.94z" data-paper-data="{&quot;glyphName&quot;:&quot;A&quot;,&quot;glyphIndex&quot;:13,&quot;word&quot;:3}" id="svg_19"/>
     <path d="m194.54,234.82l-7.92,-1.64l4.18,7.67l1.6,-0.83l-2.36,-4.33l7.9,1.6l-4.18,-7.67l-1.6,0.84l2.38,4.36z" data-paper-data="{&quot;glyphName&quot;:&quot;N&quot;,&quot;glyphIndex&quot;:14,&quot;word&quot;:3}" id="svg_20"/>
     <path d="m204.19,228.65c0.53,1.2 0.14,2.57 -0.95,3.29c-1.21,0.79 -2.85,0.42 -3.71,-0.83c-0.86,-1.25 -0.58,-2.9 0.63,-3.69c0.75,-0.49 1.75,-0.61 2.79,-0.19l0.62,-1.59c-1.36,-0.61 -3.02,-0.51 -4.38,0.37c-2.07,1.36 -2.6,4.09 -1.21,6.11c1.38,2.03 4.16,2.58 6.23,1.23c1.92,-1.26 2.54,-3.75 1.51,-5.7l-1.53,1z" data-paper-data="{&quot;glyphName&quot;:&quot;C&quot;,&quot;glyphIndex&quot;:15,&quot;word&quot;:3}" id="svg_21"/>
     <path d="m204.6,222.54l5.5,6.61l1.4,-1.11l-2.4,-2.9l3.1,-2.48l2.4,2.9l1.4,-1.12l-5.5,-6.62l-1.4,1.12l2.06,2.48l-3.1,2.48l-2.06,-2.48l-1.4,1.12z" data-paper-data="{&quot;glyphName&quot;:&quot;H&quot;,&quot;glyphIndex&quot;:16,&quot;lastGlyphOfWord&quot;:true,&quot;word&quot;:3}" id="svg_22"/>
    </g>
    <g data-paper-data="{&quot;isContainerElementsWrapper&quot;:true}" fill-rule="evenodd" id="svg_23">
     <path d="m15.47,78.62c-7.46,14.85 -12,30.55 -13.6,47.09c-1.61,16.53 -0.16,32.78 4.31,48.75c4.63,16.48 12.2,31.6 22.73,45.35c13.06,17.06 29.33,30.36 48.8,39.89c19.47,9.54 40.09,14.31 61.86,14.31c21.77,0 42.39,-4.77 61.86,-14.31c19.47,-9.54 35.74,-22.84 48.8,-39.89c10.53,-13.75 18.1,-28.86 22.73,-45.35c4.47,-15.97 5.92,-32.22 4.31,-48.75c-1.6,-16.54 -6.13,-32.24 -13.6,-47.09c-7.71,-15.34 -18.05,-28.79 -31.03,-40.36c-12.98,-11.56 -27.62,-20.38 -43.93,-26.45c-15.81,-5.87 -32.19,-8.81 -49.15,-8.81c-16.95,0 -33.34,2.94 -49.15,8.81c-16.31,6.07 -30.96,14.88 -43.93,26.45c-12.99,11.56 -23.32,25.02 -31.03,40.36zm138.02,-41.71l-0.28,4.16l-14.03,-0.9l1.49,-22.15l12.02,0.78l-0.28,4.16l-7.31,-0.47l-0.28,4.14l8.49,0.55l-0.28,4.16l-8.49,-0.55l-0.38,5.53l9.32,0.61zm-42.28,-15.64l3.42,21.94l4.66,-0.69l-1.5,-9.6l10.28,-1.54l1.5,9.6l4.66,-0.7l-3.43,-21.94l-4.66,0.7l1.29,8.21l-10.28,1.54l-1.29,-8.21l-4.65,0.69zm57.08,14.11l-3.21,-14.32l-5.23,-1.37l5.74,24.87l17.09,-18.9l-4.71,-1.23l-9.68,10.93zm-86.27,-3.81l20.13,6.04l-5.12,-11.82l4.34,-1.81l9,20.8l-20.09,-5.93l5.08,11.73l-4.34,1.81l-9.01,-20.82zm112.32,24.44l-4.61,-2.23l0,-3.32l-9.85,-4.75l-2.65,2.05l-4.36,-2.1l20.9,-15.1l0.58,25.45zm-113.21,-9.34c3.98,5.17 3.38,10.38 -1.45,13.95c-5.3,3.92 -10.58,2.18 -14.38,-2.73l-7.32,-9.52l3.76,-2.78l7.8,10.14c2.14,2.78 4.74,3.33 7.41,1.36c2.8,-2.07 2.71,-4.65 0.65,-7.31l-7.8,-10.14l3.76,-2.78l7.56,9.82zm108.62,-0.84l0,-7.7l-6.17,4.73l6.17,2.97zm20.84,-5.72l-14.09,17.38l10.83,8.43l2.65,-3.27l-7.14,-5.57l11.44,-14.11l-3.69,-2.88zm-13.47,36.45c16.3,14.53 25.5,32.54 27.58,54.04c2.08,21.48 -3.47,40.85 -16.67,58.11c-0.02,0.02 -0.03,0.03 -0.04,0.05c-8.07,10.54 -18.12,18.76 -30.15,24.65c-12.04,5.89 -24.78,8.84 -38.24,8.84c-13.46,0 -26.2,-2.95 -38.24,-8.84c-12.03,-5.89 -22.08,-14.12 -30.15,-24.65c-0.01,-0.01 -0.02,-0.02 -0.03,-0.03c-13.2,-17.27 -18.77,-36.65 -16.69,-58.13c2.08,-21.5 11.27,-39.52 27.58,-54.04c16.31,-14.53 35.48,-21.8 57.53,-21.8c22.05,0 41.22,7.27 57.53,21.8zm-118.16,180.72c-18.67,-9.14 -34.33,-21.82 -46.99,-38.01l37.84,-27.8c8.19,10.37 18.29,18.5 30.3,24.38c12.43,6.08 25.59,9.13 39.47,9.13c13.89,0 27.04,-3.05 39.47,-9.13c12.01,-5.88 22.11,-14.01 30.29,-24.38l37.85,27.8c-12.66,16.2 -28.32,28.88 -46.99,38.01c-19.09,9.35 -39.29,14.02 -60.63,14.02c-21.34,0 -41.54,-4.67 -60.63,-14.02z" data-paper-data="{&quot;isBaseLogoContainer&quot;:true}" id="svg_24"/>
    </g>
   </g>
  </g>
 </g>
</svg>